<?xml version="1.0" encoding="UTF-8"?>
<svg id="Layer_1" data-name="Layer 1" xmlns="http://www.w3.org/2000/svg" viewBox="0 0 701.41 309.32">
  <defs>
    <style>
      .cls-1 {
        fill: #4d7599;
      }

      .cls-2 {
        fill: #9ea257;
      }

      .cls-3 {
        fill: #a67e61;
      }

      .cls-4 {
        fill: #058181;
      }

      .cls-5 {
        fill: #65a1ae;
      }

      .cls-6 {
        fill: #7c8971;
      }

      .cls-7 {
        fill: #ecbf91;
      }

      .cls-8 {
        fill: #6d9b95;
      }

      .cls-9 {
        fill: #cfa35d;
      }

      .cls-10 {
        fill: #83a9bb;
      }

      .cls-11 {
        fill: #d0907f;
      }

      .cls-12 {
        fill: #fff;
      }

      .cls-13 {
        fill: #d3adb1;
      }

      .cls-14 {
        fill: #aa8bb9;
      }

      .cls-15 {
        fill: #7bc5d2;
      }

      .cls-16 {
        fill: #7c8571;
      }

      .cls-17 {
        fill: #9793af;
      }

      .cls-18 {
        fill: #a6b4c7;
      }

      .cls-19 {
        fill: #828067;
      }

      .cls-20 {
        fill: #a18e91;
      }

      .cls-21 {
        fill: #ac9f7c;
      }
    </style>
  </defs>
  <path class="cls-3" d="M561.16,171.01c-1.39-.32-4.98-.16-7.4-.21-6.7.19-6.66-1.06-3.4-5.99.9-1.7,3.96-5.1,2.66-6.2-1.78-.89-4.15-.45-6.28-.56-2.15-.1-5.49.26-7.12-.33-2-1.02,2.65-6.88,2.64-8.59v-.05c0-.07-.03-.11-.05-.16-.28-.81-1.69-.55-2.47-.64h-15.58c-.83,0-1.77-.07-2.66,0h-14.51c-.83,0-1.76-.07-2.66,0h-14.59c-.83,0-1.77-.07-2.66,0h-14.56c-.82,0-1.76-.07-2.66,0h-.36c-1.36,0-2.79,1.08-2.79,2.44l-.13,34.45c0,1.81.92,1.76.92,1.76.78.02,1-.55,1.69-1.69.98-1.6,1.57-3.79,2.72-5.43,1.77-2.64,3.14-2.66,4.63-1.14.88,1.16,1.67,2.65,2.23,3.34.97,1.31,2.04,3.41,3.31,4.41.6.56,1.2.82,1.78.49.73-.4,1.56-1.61,2.61-3.24.93-1.47,2-3.09,3.06-4.72,2.16-2.58,3.78-1.04,5.95,2.38,1.44,1.81,3.52,6.63,5.34,5.58.02-.02.04-.03.07-.05.52-.22,1.05-.81,1.62-1.62.37-.53.77-1.13,1.18-1.76.67-.99,1.34-2.07,2-3.07.14-.21.27-.4.4-.59,2.51-3.75,4.21-2.24,6.6,1.52,1.44,1.81,3.52,6.63,5.35,5.58,0,0,.02-.02.03-.02.54-.21,1.08-.81,1.68-1.65,1.1-1.56,2.43-3.79,3.58-5.43,2.34-3.5,3.99-2.42,6.15.82.35.56.66,1.06.93,1.39.09.13.19.28.29.42,1.36,2.14,3.06,5.35,4.58,4.48.09-.05.18-.11.26-.18.45-.28.89-.8,1.39-1.49,1.1-1.56,2.43-3.79,3.58-5.43,2.51-3.75,4.21-2.24,6.6,1.52,1.44,1.81,3.52,6.63,5.34,5.58.73-.4,1.57-1.61,2.61-3.24,1.98-3.13,4.58-6.96,6.47-10.12.62-1.04,1.03-2.29-.37-2.55M485.18,167.4l-.02.04c-.13.25-.6.33-1.33.36h-7.67c-1.35,0-2.22-.03-2.4-.38l-.02-.04c-.06-.15,0-.37.12-.64.09-.22.24-.49.47-.82.03-.04.07-.09.1-.13.08-.12.17-.26.26-.4.02-.02.03-.05.05-.07l.02-.02h0c.96-1.39,2.35-3.36,3.27-4.65.21-.29.4-.55.59-.77l.04-.04c.09-.1.18-.19.27-.27.02-.02.03-.02.05-.04.09-.07.18-.12.27-.16,0,0,.02,0,.03-.02.08-.03.17-.06.26-.07h.03c.08,0,.16.02.23.04.02,0,.04,0,.06.02.08.03.16.08.24.14.03.02.06.05.09.07.08.07.16.14.26.24,0,.02.03.04.04.06.08.1.17.21.26.35,0,0,.02.02.02.03.83,1.16,2.23,3.24,3.23,4.78.06.08.11.16.16.25.14.21.26.4.38.58,0,.02.02.04.03.06.23.33.37.59.46.82.12.29.18.51.12.67M501.94,167.4l-.02.04c-.14.25-.61.33-1.34.36h-7.68c-1.35,0-2.21-.03-2.4-.38l-.02-.04c-.07-.15-.02-.37.12-.64.09-.22.24-.49.48-.82.02-.04.07-.09.09-.13.09-.12.17-.26.27-.4.02-.02.03-.05.05-.07,0,0,0-.02.02-.02h0c.96-1.4,2.35-3.36,3.27-4.66.21-.29.41-.55.6-.77,0-.02.02-.02.03-.04.09-.1.19-.19.28-.27.02-.02.03-.02.05-.04.09-.07.17-.12.26-.16,0,0,.02,0,.03-.02.09-.03.18-.06.27-.07h.03c.07,0,.15.02.23.04.02,0,.04,0,.06.02.07.03.16.08.24.14.02.02.06.05.08.07.08.07.17.14.26.24.02.02.03.04.05.06.08.1.17.21.26.35l.03.03c.83,1.16,2.22,3.24,3.23,4.78.05.08.11.16.16.25.13.21.26.4.37.58.02.02.03.04.04.06.22.33.37.59.45.82.13.29.18.51.12.67M518.71,167.4l-.02.04c-.13.25-.6.33-1.33.36h-7.68c-1.35,0-2.22-.03-2.4-.38l-.03-.04c-.06-.15,0-.37.12-.64.09-.22.24-.49.48-.82.02-.04.06-.09.09-.13.08-.12.17-.26.26-.4.02-.02.03-.05.05-.07l.02-.02h0c.96-1.4,2.35-3.36,3.27-4.66.21-.29.4-.55.59-.77l.04-.04c.09-.1.18-.19.27-.27.02-.02.03-.02.05-.04.09-.07.18-.12.27-.16,0,0,.03,0,.03-.02.09-.03.17-.06.26-.07h.04c.07,0,.15.02.23.04.02,0,.03,0,.06.02.07.03.16.08.23.14.03.02.07.05.09.07.08.07.16.14.26.24.02.02.02.04.04.06.09.1.17.21.26.35l.03.03c.82,1.16,2.22,3.24,3.22,4.78.06.08.11.16.16.25.14.21.26.4.38.58,0,.02.02.04.04.06.22.33.37.59.45.82.13.29.18.51.12.67M535.47,167.4l-.02.04c-.13.25-.61.33-1.34.36h-7.67c-1.36,0-2.22-.03-2.41-.38l-.02-.04c-.07-.15,0-.37.12-.64.08-.22.24-.49.47-.82.03-.04.07-.09.1-.13.08-.12.16-.26.26-.4.02-.02.03-.05.05-.07l.02-.02h0c.96-1.39,2.35-3.36,3.27-4.65.21-.29.4-.55.59-.77,0-.02.02-.02.03-.04.1-.1.19-.19.28-.27.02-.02.03-.02.05-.04.09-.07.17-.12.26-.16.02,0,.03,0,.04-.02.08-.03.17-.06.26-.07h.03c.07,0,.16.02.23.04.02,0,.04,0,.06.02.08.03.16.08.24.14.03.02.06.05.09.07.08.07.16.14.25.24.02.02.03.04.05.06.08.1.17.21.26.35,0,0,.02.02.02.03.83,1.16,2.22,3.24,3.23,4.78.06.08.12.16.17.25.14.21.26.4.37.58.02.02.03.04.04.06.23.33.37.59.46.82.12.29.17.51.11.67"/>
  <path class="cls-9" d="M601.44,271.91c-1.64-.02-4.52.05-4.86.02-10.11,0-35.45-.02-44.72,0h-.06c-8.6-.02-32.79,0-43.84,0h-.22c-.12,0-.24,0-.36.02-2.13.07-3.91,1.7-4.03,3.83-.14,2.65.11,5.43,0,9.05v13.52c.02,3.56-.16,6.08.85,7.27,2.17,2.01,7.44.71,10.58.86,6.09.24,19.67-.19,24.12-.14,3.42.25,6.26.29,10.25.33,3.26.16,9.92.12,14.14.35,4.53-.09,11.67-.7,16.31-6.89,5.91-6.45,11.16-11.95,18.41-20.09.04-.04,3.63-4.03,3.84-4.28,1.27-1.48,1.56-3.83-.4-3.86M513.95,301.42c0,.07-.02.13-.04.19,0,.02,0,.03-.02.05-.02.05-.05.1-.07.14-.02.04-.06.07-.09.11-.02.02-.06.05-.08.07-.02,0-.05.02-.07.03-.05.02-.12.04-.18.06-.03,0-.07.02-.11.02h-.35c-.36.02-.81.02-1.26.02s-.9,0-1.26-.02h-.35s-.07-.02-.11-.02c-.08-.02-.13-.03-.19-.06-.02,0-.04-.02-.07-.03-.03-.02-.06-.05-.08-.07-.03-.03-.07-.07-.09-.11-.03-.04-.06-.09-.07-.14,0-.02-.02-.03-.02-.05-.02-.06-.03-.12-.04-.19-.02-.17,0-.35.09-.51l.04-.06c.15-.21.49-.23,1.01-.23.37-.02.75,0,1.13,0s.76-.02,1.13,0c.53,0,.87.02,1.02.23l.04.06c.07.12.1.27.1.41v.1M509.48,297.08l.04-.06c.14-.21.47-.25.97-.24.36-.02.78-.02,1.18,0h1.18c.49,0,.82.02.97.24l.04.06c.11.21.12.45.03.65,0,.02,0,.03-.02.05,0,.02-.02.05-.04.08-.04.07-.09.12-.16.18-.02,0-.03.02-.04.03-.02,0-.05.02-.07.03-.05.02-.11.05-.17.06-.03,0-.07.02-.11.02h-.35c-.37.02-.82.02-1.27.02s-.9,0-1.27-.02h-.35s-.07,0-.11-.02c-.07,0-.12-.03-.17-.06-.02,0-.05-.02-.07-.03-.02-.02-.03-.02-.04-.03-.07-.06-.12-.12-.16-.18-.02-.03-.03-.06-.05-.08,0-.02,0-.03-.02-.05-.07-.21-.07-.45.04-.65M513.95,293.67c0,.07-.02.12-.04.19,0,.02,0,.03-.02.05-.02.05-.05.1-.07.14-.02.04-.06.07-.09.11-.02.02-.06.05-.08.07-.02,0-.05.02-.07.03-.05.02-.12.04-.18.06-.03,0-.07.02-.11.02h-.35c-.36.02-.81.02-1.26.02s-.9,0-1.26-.02h-.35s-.07-.02-.11-.02c-.08-.02-.13-.03-.19-.06-.03-.02-.04-.02-.07-.03-.03-.02-.06-.05-.08-.07-.03-.03-.07-.07-.09-.11-.03-.04-.06-.09-.07-.14,0-.02-.02-.03-.02-.05-.02-.07-.03-.12-.04-.19-.02-.17,0-.35.09-.51l.04-.07c.15-.21.49-.22,1.01-.22.37-.02.75,0,1.13,0s.76-.02,1.13,0c.53,0,.87.02,1.02.22l.04.07c.07.12.1.27.1.41v.1M520.19,301.45c0,.12-.03.23-.08.38l-.04.06c-.16.22-.5.23-1.05.22h-2.14c-.55,0-.9,0-1.05-.22l-.04-.06c-.05-.15-.07-.26-.09-.38-.02-.26.02-.43.15-.55.04-.06.09-.11.15-.14.18-.08.38-.11.59-.12.36-.03.78,0,1.17,0h.4c.38,0,.8-.02,1.17,0,.2.02.39.04.58.12.06.03.11.08.15.14.1.1.16.23.16.42v.13M520.12,297.9l-.04.07c-.15.21-.47.24-.96.24-.36.02-.77,0-1.16,0s-.81.02-1.17,0c-.49,0-.82-.02-.96-.24l-.04-.07c-.11-.2-.12-.44-.04-.64,0-.02.02-.03.02-.05.02-.03.03-.06.05-.08.04-.07.08-.12.15-.17.02-.02.02-.03.04-.04.03-.02.05-.02.07-.04.06-.02.11-.04.17-.05h0s.07-.02.1-.02h.35c.36-.02.8-.02,1.25-.02s.89,0,1.24.02h.35s.07.02.11.02h0c.07.02.12.03.17.06.02.02.05.02.07.04.02,0,.03.02.05.04.06.05.11.11.14.17.02.02.03.05.05.08,0,.02,0,.03.02.05.07.21.07.45-.03.64M515.7,293.7c-.02-.26.02-.44.15-.56.04-.05.09-.1.15-.14.18-.07.38-.11.59-.12.36-.03.78,0,1.17,0h.4c.38,0,.8-.02,1.17,0,.2,0,.39.04.58.12.06.04.11.09.15.14.1.1.16.24.16.43v.13c0,.12-.03.23-.08.37l-.04.07c-.16.21-.5.23-1.05.22h-2.14c-.55,0-.9,0-1.05-.22l-.04-.07c-.05-.14-.07-.26-.09-.37M526.12,296.87s.05.02.07.04c.02,0,.03.02.05.04.06.05.11.11.15.17.02.02.03.05.04.08,0,.02.02.03.02.05.07.21.07.45-.03.64l-.04.07c-.15.21-.47.24-.96.24-.35.02-.77,0-1.16,0s-.81.02-1.16,0c-.5,0-.82-.02-.96-.24l-.04-.07c-.11-.2-.11-.44-.03-.64,0-.02,0-.03.02-.05,0-.03.02-.06.04-.08.04-.07.09-.12.15-.17.02-.02.03-.03.05-.04.02-.02.04-.02.07-.04.06-.02.12-.04.17-.05t0,0s.07-.02.1-.02h.35c.36-.02.81-.02,1.25-.02s.89,0,1.25.02h.34s.07.02.11.02h0c.07.02.12.03.17.06M526.5,301.45c-.02.12-.04.23-.09.38l-.04.06c-.16.22-.5.23-1.05.22h-2.14c-.54,0-.9,0-1.05-.22l-.04-.06c-.05-.15-.07-.26-.09-.38-.03-.26.03-.43.15-.55.04-.06.09-.11.15-.14.19-.08.38-.11.59-.12.36-.03.78,0,1.17,0h.39c.38,0,.81-.02,1.17,0,.2.02.4.04.58.12.07.03.11.08.15.14.11.11.16.25.16.45v.11M526.5,293.7c-.02.12-.04.23-.09.37l-.04.07c-.16.21-.5.23-1.05.22h-2.14c-.54,0-.9,0-1.05-.22l-.04-.07c-.05-.14-.07-.26-.09-.37-.03-.26.03-.44.15-.56.04-.05.09-.1.15-.14.19-.07.38-.11.59-.12.36-.03.78,0,1.17,0h.39c.38,0,.81-.02,1.17,0,.2,0,.4.04.58.12.07.04.11.09.15.14.11.11.16.25.16.45v.12M532.8,301.32c.02.17,0,.35-.09.51l-.04.06c-.15.21-.49.23-1.01.22-.37.02-.76,0-1.13,0h-1.14c-.52,0-.86,0-1.02-.22l-.03-.06c-.09-.16-.12-.34-.09-.51h0c0-.07.02-.13.04-.19v-.06s.05-.1.08-.14c.02-.04.06-.07.09-.1.03-.03.05-.06.08-.07.02-.02.04-.02.07-.03.06-.03.12-.05.18-.06h0s.07-.02.1-.02c.11,0,.22,0,.35-.02.36,0,.81-.02,1.26-.02s.89,0,1.26.02c.12,0,.25,0,.35.02.04,0,.07,0,.11.02.07,0,.13.02.18.06.03,0,.05.02.07.03.03.02.06.04.09.07s.07.07.09.1c.02.05.05.09.07.14,0,.02,0,.03.02.06.02.06.03.12.04.18h.02ZM532.72,297.9l-.04.07c-.15.21-.48.24-.97.24-.36.02-.78,0-1.18,0s-.82.02-1.18,0c-.5,0-.83-.02-.98-.24l-.04-.07c-.11-.21-.11-.45-.03-.64,0-.02,0-.03.02-.05.02-.03.03-.06.05-.08.04-.07.09-.13.16-.18,0,0,.02-.02.04-.03.02-.02.04-.02.07-.04.05-.02.11-.04.17-.06.03,0,.07-.02.11-.02h.35c.37-.02.82-.02,1.27-.02s.9,0,1.26.02h.35s.07.02.11.02c.06.02.12.03.17.06.03.02.05.02.07.04.02,0,.03.02.04.03.06.05.12.11.16.18.02.02.03.05.04.08,0,.02.02.03.02.05.07.2.07.44-.03.64M528.24,293.69v-.13c0-.07.02-.12.04-.19v-.05s.05-.1.08-.14c.02-.04.06-.07.09-.11.03-.02.05-.05.08-.07.02-.02.04-.02.07-.04.06-.02.12-.04.18-.05h0s.07-.02.1-.02c.1,0,.22,0,.35-.02.36,0,.81-.02,1.26-.02s.89,0,1.26.02c.12,0,.25,0,.35.02.04,0,.07,0,.11.02.07,0,.13.02.18.05.03.02.05.02.07.04.03.02.06.04.09.07s.06.07.09.11c.02.04.05.09.07.14,0,.02,0,.03.02.05.02.07.03.12.04.19.02.18,0,.36-.09.51l-.04.07c-.15.21-.49.22-1.01.22-.37.02-.76,0-1.13,0s-.77.02-1.14,0c-.52,0-.86,0-1.02-.22l-.03-.07c-.07-.12-.1-.25-.1-.38M538.67,296.87s.05.02.07.04c.02,0,.03.02.04.04.07.05.12.11.15.17.02.02.03.05.05.08,0,.02,0,.03.02.05.07.21.07.45-.04.64l-.03.07c-.15.21-.47.24-.96.24-.36.02-.78,0-1.17,0s-.8.02-1.16,0c-.5,0-.82-.02-.96-.24l-.03-.07c-.12-.2-.12-.44-.04-.64,0-.02,0-.03.02-.05.02-.03.03-.06.05-.08.03-.07.08-.12.15-.17,0-.02.02-.03.04-.04.02-.02.05-.02.07-.04.05-.02.11-.04.17-.05h0s.07-.02.11-.02h.35c.36-.02.8-.02,1.25-.02s.89,0,1.25.02h.35s.07.02.11.02h0c.07.02.12.03.17.06M539.04,301.45c-.02.12-.04.23-.09.38l-.03.06c-.16.22-.5.23-1.05.22h-2.14c-.54,0-.89,0-1.05-.22l-.03-.06c-.06-.15-.08-.26-.09-.38-.03-.26.03-.43.15-.55.04-.06.09-.11.15-.14.18-.08.38-.11.59-.12.36-.03.78,0,1.16,0h.39c.39,0,.81-.02,1.17,0,.21.02.4.04.59.12.06.03.11.08.15.14.1.1.16.23.16.42v.13M539.04,293.7c-.02.12-.04.23-.09.37l-.03.07c-.16.21-.5.23-1.05.22h-2.14c-.54,0-.89,0-1.05-.22l-.03-.07c-.06-.14-.08-.26-.09-.37-.03-.26.03-.44.15-.56.04-.05.09-.1.15-.14.18-.07.38-.11.59-.12.36-.03.78,0,1.16,0h.39c.39,0,.81-.02,1.17,0,.21,0,.4.04.59.12.06.04.11.09.15.14.1.1.16.24.16.43v.13M545.34,301.32c.03.17,0,.35-.09.51l-.03.06c-.16.21-.5.23-1.02.22-.37.02-.75,0-1.13,0h-1.13c-.53,0-.86,0-1.01-.22l-.04-.06c-.08-.16-.11-.34-.09-.51h0c0-.07.02-.13.04-.19,0-.02,0-.04.02-.06.02-.05.05-.1.07-.14.03-.04.06-.07.09-.1.03-.03.06-.06.09-.07.02-.02.04-.02.07-.03.05-.03.11-.05.18-.06.03,0,.07-.02.11-.02.1,0,.22,0,.35-.02.37,0,.82-.02,1.26-.02s.9,0,1.26.02c.13,0,.25,0,.35.02.04,0,.07,0,.11.02.07,0,.13.02.19.06.02,0,.04.02.07.03.03.02.06.04.08.07.03.03.07.07.09.1.03.05.06.09.08.14v.06c.02.06.03.12.04.18h0ZM545.26,297.9l-.03.07c-.15.21-.48.24-.98.24-.36.02-.77,0-1.18,0s-.82.02-1.18,0c-.5,0-.82-.02-.97-.24l-.04-.07c-.11-.21-.11-.45-.03-.64,0-.02,0-.03.02-.05,0-.03.02-.06.04-.08.04-.07.09-.13.16-.18.02,0,.02-.02.04-.03.02-.02.05-.02.07-.04.05-.02.11-.04.17-.06.04,0,.07-.02.11-.02h.35c.37-.02.82-.02,1.27-.02s.9,0,1.27.02h.35s.07.02.11.02c.07.02.12.03.17.06.03.02.06.02.07.04.02,0,.02.02.04.03.07.05.12.11.16.18.02.02.03.05.05.08,0,.02,0,.03.02.05.07.2.07.44-.04.64M540.78,293.66v-.11c0-.07.02-.12.04-.19,0-.02,0-.03.02-.05.02-.05.05-.1.07-.14.02-.04.06-.07.09-.11.03-.02.06-.05.09-.07.02-.02.04-.02.07-.04.05-.02.11-.04.18-.05.03,0,.07-.02.11-.02.1,0,.22,0,.35-.02.36,0,.82-.02,1.26-.02s.9,0,1.26.02c.13,0,.25,0,.35.02.04,0,.07,0,.11.02.07,0,.13.02.19.05.02.02.04.02.07.04.03.02.06.04.08.07.03.03.07.07.09.11.03.04.06.09.08.14v.05c.02.07.03.12.04.19.03.18,0,.36-.09.51l-.03.07c-.16.21-.5.22-1.02.22-.37.02-.75,0-1.13,0s-.76.02-1.13,0c-.53,0-.86,0-1.01-.22l-.04-.07c-.07-.12-.1-.26-.1-.4M551.7,301.32c.02.17,0,.35-.09.51l-.04.06c-.15.21-.49.23-1.01.22-.37.02-.76,0-1.14,0h-1.13c-.52,0-.86,0-1.01-.22l-.04-.06c-.08-.16-.11-.34-.09-.51q.01-.11,0,0c0-.07.02-.12.03-.18,0-.02,0-.04.02-.06.03-.05.05-.1.08-.14.02-.04.06-.07.08-.1.03-.03.06-.06.09-.07.02-.02.04-.02.07-.03.06-.03.12-.05.18-.06h0s.07-.02.1-.02c.1,0,.22,0,.35-.02.36,0,.81-.02,1.25-.02s.9,0,1.26.02c.13,0,.26,0,.35.02.03,0,.07,0,.11.02.07,0,.12.02.18.06.03,0,.05.02.07.03.03.02.06.04.09.07s.06.07.09.1c.02.05.05.09.07.14,0,.02,0,.03.02.06.02.06.03.12.04.18h.02ZM551.62,297.9l-.04.07c-.15.21-.48.24-.98.24-.35.02-.77,0-1.18,0s-.82.02-1.17,0c-.5,0-.83-.02-.98-.24l-.04-.07c-.11-.21-.11-.45-.03-.64,0-.02,0-.03.02-.05.02-.03.03-.06.05-.08.03-.07.09-.13.16-.18l.03-.03s.05-.02.07-.04c.06-.02.12-.04.18-.06.03,0,.07-.02.11-.02h.35c.36-.02.82-.02,1.26-.02s.91,0,1.27.02h.35s.07.02.11.02c.06.02.12.03.17.06.03.02.05.02.08.04,0,0,.02.02.04.03.06.05.12.11.15.18.02.02.03.05.05.08,0,.02.02.03.02.05.07.2.07.44-.03.64M547.14,293.56h0c0-.07.02-.12.03-.19,0-.02,0-.03.02-.05.03-.05.05-.1.08-.14.02-.04.05-.07.09-.11.03-.02.05-.05.08-.07.02-.02.04-.02.07-.04.06-.02.12-.04.18-.05h0s.07-.02.1-.02c.1,0,.22,0,.35-.02.37,0,.82-.02,1.26-.02s.9,0,1.27.02c.12,0,.25,0,.35.02.03,0,.07,0,.11.02.07,0,.12.02.18.05.03.02.05.02.07.04.03.02.06.04.09.07s.06.07.08.11c.03.04.06.09.08.14,0,.02,0,.03.02.05.02.07.03.12.04.19.02.18,0,.36-.09.51l-.04.07c-.15.21-.49.22-1.01.22-.37.02-.76,0-1.14,0s-.76.02-1.13,0c-.52,0-.86,0-1.01-.22l-.04-.07c-.08-.15-.11-.33-.09-.51M558.05,301.32c.02.17,0,.35-.09.51l-.04.06c-.15.21-.49.23-1.01.22-.37.02-.75,0-1.13,0h-1.13c-.53,0-.87,0-1.01-.22l-.04-.06c-.08-.16-.11-.34-.09-.51h0c0-.07.02-.13.04-.19,0-.02,0-.04.02-.06.02-.05.04-.1.07-.14.02-.04.06-.07.09-.1.03-.03.05-.06.08-.07.02-.02.05-.02.07-.03.06-.03.12-.05.19-.06.03,0,.07-.02.11-.02.1,0,.21,0,.35-.02.36,0,.81-.02,1.26-.02s.89,0,1.26.02c.13,0,.25,0,.35.02.04,0,.07,0,.11.02.07,0,.13.02.18.06.02,0,.05.02.07.03.03.02.06.04.08.07.03.03.07.07.09.1.03.05.06.09.08.14,0,.02,0,.03.02.06.02.06.03.12.04.18h-.02ZM557.97,297.9l-.04.07c-.15.21-.47.24-.97.24-.36.02-.78,0-1.18,0s-.82.02-1.18,0c-.5,0-.83-.02-.97-.24l-.04-.07c-.12-.21-.12-.45-.04-.64,0-.02.02-.03.02-.05.02-.03.03-.06.05-.08.04-.07.09-.13.16-.18.02,0,.03-.02.04-.03.02-.02.05-.02.07-.04.05-.02.11-.04.17-.06.03,0,.07-.02.11-.02h.35c.37-.02.82-.02,1.27-.02s.9,0,1.27.02h.35s.07.02.11.02c.07.02.12.03.17.06.02.02.05.02.07.04.02,0,.03.02.04.03.07.05.12.11.16.18.02.02.03.05.04.08,0,.02.02.03.03.05.07.2.07.44-.04.64M553.49,293.66v-.11c0-.07.02-.12.04-.19,0-.02,0-.03.02-.05.02-.05.04-.1.07-.14.02-.04.06-.07.09-.11.03-.02.05-.05.08-.07.02-.02.05-.02.07-.04.06-.02.12-.04.19-.05.03,0,.07-.02.11-.02.1,0,.21,0,.35-.02.36,0,.81-.02,1.26-.02s.9,0,1.26.02c.13,0,.25,0,.35.02.04,0,.07,0,.11.02.07,0,.13.02.18.05.02.02.05.02.07.04.03.02.06.04.08.07.03.03.07.07.09.11.03.04.06.09.08.14,0,.02,0,.03.02.05.02.07.03.12.04.19.02.18,0,.36-.09.51l-.04.07c-.15.21-.49.22-1.01.22-.37.02-.75,0-1.13,0s-.76.02-1.13,0c-.53,0-.87,0-1.01-.22l-.04-.07c-.07-.12-.1-.26-.1-.4M564.4,301.32c.02.17,0,.35-.09.51l-.04.06c-.15.21-.49.23-1.01.22-.37.02-.75,0-1.13,0h-1.13c-.53,0-.87,0-1.02-.22l-.04-.06c-.08-.16-.11-.34-.09-.51h0c0-.07.02-.13.04-.19,0-.02,0-.04.02-.06.02-.05.05-.1.07-.14.03-.04.06-.07.09-.1.02-.03.06-.06.08-.07.03-.02.05-.02.07-.03.05-.03.12-.05.18-.06.04,0,.07-.02.11-.02.1,0,.22,0,.35-.02.37,0,.82-.02,1.26-.02s.9,0,1.26.02c.13,0,.25,0,.35.02.04,0,.07,0,.11.02h0c.07,0,.12.02.18.06.03,0,.04.02.07.03.03.02.06.04.08.07.03.03.07.07.09.1.03.05.06.09.07.14,0,.02.02.03.02.06.02.06.03.12.04.18h.01ZM564.32,297.9l-.03.07c-.15.21-.48.24-.98.24-.36.02-.78,0-1.18,0s-.82.02-1.18,0c-.49,0-.82-.02-.97-.24l-.04-.07c-.11-.21-.12-.45-.03-.64,0-.02,0-.03.02-.05,0-.03.03-.06.04-.08.04-.07.09-.13.16-.18.02,0,.03-.02.04-.03.03-.02.05-.02.07-.04.05-.02.12-.04.17-.06.04,0,.07-.02.11-.02h.35c.36-.02.81-.02,1.26-.02s.9,0,1.27.02h.35s.07.02.11.02c.07.02.12.03.17.06.03.02.06.02.07.04.02,0,.02.02.04.03.07.05.12.11.16.18.02.02.03.05.05.08,0,.02,0,.03.02.05.07.2.07.44-.04.64M559.84,293.66v-.11c0-.07.02-.12.04-.19,0-.02,0-.03.02-.05.02-.05.05-.1.07-.14.03-.04.06-.07.09-.11.03-.02.06-.05.08-.07.03-.02.05-.02.07-.04.05-.02.12-.04.18-.05.04,0,.07-.02.11-.02.1,0,.21,0,.35-.02.37,0,.82-.02,1.26-.02s.9,0,1.26.02c.13,0,.25,0,.35.02.04,0,.07,0,.11.02h0c.07,0,.12.02.18.05.03.02.04.02.07.04.03.02.06.04.08.07.03.03.07.07.09.11.03.04.06.09.07.14,0,.02.02.03.02.05.02.07.03.12.04.19.02.18,0,.36-.09.51l-.04.07c-.15.21-.49.22-1.01.22-.37.02-.75,0-1.13,0s-.76.02-1.13,0c-.53,0-.87,0-1.02-.22l-.04-.07c-.07-.12-.1-.26-.1-.4M570.76,301.32c.02.17,0,.35-.09.51l-.04.06c-.15.21-.49.23-1.01.22-.37.02-.76,0-1.13,0h-1.14c-.52,0-.86,0-1.01-.22l-.04-.06c-.08-.16-.11-.34-.09-.51h0c0-.07.03-.13.04-.19,0-.02,0-.04.02-.06.02-.05.05-.1.08-.14.03-.04.06-.07.09-.1.02-.03.05-.06.08-.07.02-.02.04-.02.07-.03.06-.03.12-.05.18-.06h0s.07-.02.1-.02c.1,0,.22,0,.35-.02.36,0,.81-.02,1.26-.02s.89,0,1.25.02c.13,0,.26,0,.36.02.03,0,.07,0,.11.02.07,0,.12.02.18.06.02,0,.05.02.07.03.03.02.06.04.09.07s.06.07.08.1c.03.05.06.09.08.14,0,.02,0,.03.02.06.02.06.03.12.04.18h0ZM570.68,297.9l-.04.07c-.15.21-.48.24-.98.24-.35.02-.78,0-1.17,0s-.82.02-1.18,0c-.5,0-.83-.02-.98-.24l-.04-.07c-.11-.21-.11-.45-.03-.64,0-.02,0-.03.02-.05.02-.03.03-.06.05-.08.04-.07.09-.13.16-.18,0,0,.03-.02.03-.03.03-.02.05-.02.07-.04.06-.02.12-.04.18-.06.03,0,.07-.02.11-.02h.35c.36-.02.82-.02,1.27-.02s.9,0,1.26.02h.35s.07.02.12.02c.06.02.11.03.17.06.02.02.05.02.07.04l.03.03c.07.05.12.11.16.18.02.02.04.05.05.08,0,.02,0,.03.02.05.07.2.07.44-.03.64M566.19,293.66v-.11c0-.07.03-.12.04-.19,0-.02,0-.03.02-.05.02-.05.05-.1.08-.14.03-.04.06-.07.09-.11.02-.02.05-.05.08-.07.02-.02.04-.02.07-.04.06-.02.12-.04.18-.05h0s.07-.02.1-.02c.1,0,.22,0,.35-.02.36,0,.81-.02,1.26-.02s.89,0,1.26.02c.12,0,.25,0,.35.02.03,0,.07,0,.1.02h0c.07,0,.12.02.18.05.02.02.05.02.07.04.03.02.06.04.08.07.04.03.07.07.09.11.03.04.06.09.08.14,0,.02,0,.03.02.05.02.07.03.12.04.19.02.18,0,.36-.09.51l-.04.07c-.15.21-.49.22-1.01.22-.37.02-.76,0-1.13,0s-.77.02-1.14,0c-.52,0-.86,0-1.01-.22l-.04-.07c-.07-.12-.1-.26-.1-.4M576.5,297.9l-.04.07c-.15.21-.48.24-.98.24-.35.02-.77,0-1.18,0s-.82.02-1.17,0c-.5,0-.83-.02-.98-.24l-.04-.07c-.11-.21-.11-.45-.03-.64,0-.02,0-.03.02-.05,0-.03.03-.06.04-.08.04-.07.1-.13.16-.18l.03-.03s.05-.02.07-.04c.06-.02.12-.04.18-.06.03,0,.07-.02.1-.02h.35c.36-.02.82-.02,1.26-.02s.91,0,1.27.02h.35s.07.02.11.02c.07.02.12.03.18.06.03.02.05.02.07.04l.03.03c.07.05.12.11.16.18.02.02.03.05.05.08,0,.02,0,.03.02.05.07.2.07.44-.03.64M572.01,293.66v-.11c0-.07.02-.12.04-.19,0-.02,0-.03.02-.05.03-.05.05-.1.08-.14.02-.04.05-.07.08-.11.03-.02.06-.05.09-.07.02-.02.04-.02.07-.04.06-.02.12-.04.18-.05h0s.07-.02.1-.02c.1,0,.22,0,.35-.02.37,0,.82-.02,1.26-.02s.9,0,1.27.02c.12,0,.25,0,.35.02.03,0,.07,0,.1.02h0c.07,0,.12.02.18.05.03.02.05.02.07.04.03.02.06.04.08.07.04.03.07.07.09.11.03.04.06.09.08.14,0,.02,0,.03.02.05.02.07.03.12.04.19.02.18,0,.36-.09.51l-.04.07c-.16.21-.5.22-1.01.22-.37.02-.76,0-1.14,0s-.76.02-1.13,0c-.52,0-.87,0-1.01-.22l-.04-.07c-.07-.12-.1-.26-.1-.4M582.33,294.07l-.04.07c-.15.21-.49.22-1.01.22-.37.02-.75,0-1.13,0s-.76.02-1.13,0c-.53,0-.87,0-1.01-.22l-.04-.07c-.07-.12-.1-.26-.1-.4v-.11c0-.07.02-.12.04-.19,0-.02,0-.03.02-.05.02-.05.04-.1.07-.14.02-.04.06-.07.09-.11.03-.02.05-.05.08-.07.02-.02.04-.02.07-.04.06-.02.12-.04.18-.05h0s.07-.02.11-.02c.1,0,.22,0,.35-.02.36,0,.81-.02,1.26-.02s.9,0,1.26.02c.13,0,.25,0,.35.02.04,0,.07,0,.11.02.07,0,.13.02.18.05.03.02.05.02.08.04.02.02.06.04.08.07.03.03.07.07.09.11s.06.09.07.14c0,.02,0,.03.02.05.02.07.03.12.04.19.02.18,0,.36-.09.51M583.84,283.01v4.35c0,.76,0,1.53-.24,2.17-.09.3-.23.54-.44.74-.03.04-.07.09-.11.13h-.07c-.33.23-.8.34-1.48.29-.59-.02-1.29-.03-2.07-.04-3.91.16-9.2.15-14.41.1-3.22.03-6.48.04-9.42.02-2.94.02-6.2.02-9.42-.02-3.06.02-6.14.04-8.96.02-2.82.02-5.9,0-8.96-.02-5.22.05-10.5.06-14.41-.1-.78,0-1.48.02-2.08.04-.67.05-1.14-.06-1.47-.29h-.07s-.07-.09-.11-.13c-.2-.2-.34-.45-.44-.74-.22-.64-.24-1.41-.23-2.17,0-.14,0-.28-.02-.42v-3.92c0-1.88,0-3.76.16-4.89.07-.47.12-1.09.52-1.31h.03c.18-.04.4.14.63.45.02.03.05.06.07.1.01.03.02.03.02.02.49.71.97,1.59,1.55,2.37.24.32.49.63.77.91.03.02.04.04.07.07.72.66,1.61,1.1,2.58,1.39,1.48.39,3.16.38,4.77.26.78-.11,1.55-.27,2.26-.48.34-.14.66-.32.96-.53.6-.43,1.1-1,1.53-1.58.64-1.15,1.19-1.95,1.66-2.46.39-.5.78-.82,1.25-.79.46-.02.86.29,1.25.79.47.51,1.01,1.31,1.65,2.46.44.59.94,1.15,1.54,1.58.31.21.63.39.96.53.71.21,1.47.37,2.26.48.4.03.8.05,1.2.07h.18c.4-.02.81-.03,1.2-.07.79-.11,1.55-.27,2.26-.48.34-.14.66-.32.96-.53.6-.43,1.1-1,1.54-1.58.64-1.15,1.18-1.95,1.65-2.46.4-.5.79-.82,1.25-.79.28-.02.53.1.78.3.16,0,.35.17.57.45.03.03.05.06.07.1.01.03.02.03.02.02.49.71.97,1.59,1.55,2.37.24.32.49.63.78.91l.07.07c.72.66,1.61,1.1,2.58,1.39.68.17,1.4.26,2.14.31.1,0,.19,0,.29.02h1.16c.1,0,.2-.02.29-.02.74-.04,1.47-.13,2.14-.31.97-.28,1.86-.73,2.58-1.39.02-.02.04-.05.07-.07.28-.28.54-.59.78-.91.58-.78,1.06-1.66,1.55-2.37l.02-.02s.05-.07.07-.1c.22-.27.4-.44.58-.45.24-.2.49-.31.77-.3.46-.02.86.29,1.25.79.47.51,1.01,1.31,1.65,2.46.44.59.94,1.15,1.54,1.58.31.21.63.39.96.53.71.21,1.47.37,2.26.48,1.6.12,3.29.13,4.77-.26.97-.28,1.86-.73,2.57-1.39h0s.04-.05.07-.07c.28-.28.54-.59.78-.91.57-.78,1.06-1.66,1.54-2.37,0,0,.02,0,.02-.02.02-.04.05-.07.07-.1.24-.31.45-.49.63-.45h.03c.4.23.44.85.52,1.32.15,1.13.16,3,.15,4.87"/>
  <path class="cls-21" d="M554.41,192.32l-.02-.07c-.2-.84-.85-.97-1.65-.98h-102.27c-2.47-.21-1.81,2.8-1.99,4.51-.03,2.57-.02,6.55,0,9.42,0,2,.04,3.45.21,4.28.3,1.46,1.13,1.23,2.95,1.27,21.34-.26,87.32.49,101.41-.25.71-.03,1.29-.54,1.42-1.22.19-1.01.18-2.42.19-3.22-.12-4.38.31-9.63-.25-13.75M452.89,194.11h97.32c.66,0,.98.63.5.98-9.95,7.26-7.54,7.11-17.81-.26-.58-.41-1.46-.41-2.04,0-10.35,7.5-7.75,7.44-18.16,0-.58-.42-1.44-.41-2.02,0-10.37,7.41-7.78,7.54-18.16,0-.58-.42-1.46-.42-2.04,0-10.36,7.41-7.77,7.54-18.15,0-.58-.42-1.45-.42-2.03,0-10.28,7.36-7.83,7.54-17.9.19-.45-.33-.16-.92.47-.92M552.11,207.94c0,.71-1.11,1.08-1.8.59l-7.26-5.09c-.57-.4-1.42-.4-1.99,0l-7.41,5.19c-1,.69-2.46.69-3.45,0l-7.32-5.17c-.58-.4-1.43-.41-2,0l-7.42,5.19c-.99.69-2.45.69-3.44,0l-7.42-5.19c-.57-.4-1.42-.4-2,0l-7.32,5.17c-.99.7-2.46.7-3.45,0l-7.41-5.19c-.58-.4-1.43-.4-2,0l-7.33,5.17c-.99.7-2.46.7-3.45,0l-7.41-5.19c-.57-.4-1.42-.4-1.99,0l-7.39,5.19c-.66.46-1.72.12-1.76-.56-.34-6.84.29-5.22,10.13-5.33h89.65c.67,0,1.21.41,1.21.92v4.27l.03.03Z"/>
  <path class="cls-2" d="M613.49,195.24c.06-3.83-.27-4.1-3.11-4.04-8.62,0-35.65-.02-42.89,0-1.78.07-6.29-1.05-6.3,2.16-.63,3.68.16,6.13,0,11.3v14.86c.02,3.23-.09,5.07.38,5.76l.03.04c.39.51,1.07.49,1.7.54,1.94.03,5.86,0,10.71.02h36.79c3.31.24,2.55-1.88,2.68-4.8v-25.83M608.87,198.02v-2.07c0-.27,0-.51.02-.72,0-.07,0-.13.02-.19.05-.36.14-.62.35-.76l.07-.06c.13-.07.26-.1.39-.11h.18c.12,0,.26.03.39.11l.07.06c.2.14.3.4.35.76,0,.06.02.12.02.19.02.21.02.45.02.72v2.06c0,.68,0,1.35-.03,1.89,0,.09,0,.17-.02.26,0,.03-.02.06-.02.1v.04s0,.02-.02.04c-.02.1-.04.19-.09.27-.02.06-.07.11-.11.16-.02.02-.03.05-.05.07-.07.07-.15.13-.23.16h0c-.08.04-.16.07-.25.07h-.24c-.09,0-.16-.03-.25-.07h0c-.08-.03-.16-.09-.23-.16-.02-.02-.03-.04-.06-.07-.04-.05-.07-.1-.11-.16-.04-.08-.07-.17-.09-.27t-.02-.04v-.04s-.02-.07-.02-.1c0-.08,0-.16-.02-.25-.04-.54-.04-1.21-.03-1.89M604.8,198.05v-2.05c0-.27,0-.5.02-.71,0-.07,0-.12.02-.19.05-.35.14-.62.35-.75l.07-.06c.13-.07.26-.1.39-.11h.18c.12,0,.25.03.39.11l.07.06c.2.13.3.4.35.75,0,.07.02.12.02.19.02.21.02.44.02.71v2.05c0,.67,0,1.34-.03,1.87,0,.08,0,.17-.02.25,0,.03-.02.06-.02.09v.05s0,.02-.02.04c-.02.1-.04.19-.09.26-.02.07-.07.12-.11.16-.02.02-.03.04-.05.07-.07.07-.15.12-.23.16h0c-.08.03-.16.06-.25.07h-.24c-.09,0-.16-.03-.25-.07h0c-.08-.04-.16-.1-.23-.16-.02-.02-.03-.04-.06-.07-.03-.05-.07-.1-.11-.16-.04-.07-.07-.16-.09-.26v-.09s-.02-.06-.02-.09c0-.07,0-.16-.02-.25-.04-.54-.04-1.2-.03-1.87M600.68,198.08v-2.08c0-.86.02-1.41.36-1.65l.07-.05c.19-.1.36-.13.53-.12h.13c.13.02.27.05.4.12l.07.05c.21.15.29.42.33.8.02.12.02.23.02.35v2.09c.02.71.02,1.45,0,2.06,0,.18-.02.35-.02.5,0,.21-.07.37-.17.52-.02.04-.04.08-.07.12h0c-.15.17-.34.26-.54.29h-.25c-.21-.02-.4-.12-.55-.29h0s-.05-.07-.07-.12c-.1-.15-.16-.31-.17-.52v-.28c-.04-.51-.04-1.15-.03-1.8M596.62,198.05c0-.58,0-1.15.02-1.68v-.37c0-.27,0-.5.02-.71,0-.07,0-.12.02-.19.04-.35.14-.62.34-.75l.07-.06c.14-.07.26-.1.39-.11h.18c.12,0,.26.03.39.11l.07.06c.21.13.3.4.35.75,0,.07.02.12.02.19.02.21.02.44.02.71v2.05c0,.67,0,1.34-.03,1.87v.25s-.02.06-.02.09v.05s-.02.02-.02.04c-.02.1-.05.19-.09.26-.03.07-.07.12-.11.16-.02.02-.04.04-.06.07-.07.07-.15.12-.23.16h0c-.08.03-.16.06-.25.07h-.24c-.08,0-.16-.03-.24-.07h-.02c-.08-.04-.16-.1-.22-.16-.02-.02-.04-.04-.06-.07-.04-.05-.07-.1-.11-.16-.04-.07-.07-.16-.09-.26,0-.02-.02-.02-.02-.04v-.05s-.02-.06-.02-.09c0-.07,0-.16-.02-.25-.03-.54-.04-1.2-.03-1.87M596.63,205.34c.02-1.01.11-1.72.55-2.09l.08-.06c.25-.14.65-.26,1.13-.34.35-.07.75-.1,1.14-.1h.16c.4,0,.78.03,1.15.1.47.08.87.2,1.12.34l.08.06c.45.36.54,1.08.55,2.09.06.8.04,1.66.02,2.48.02.73.04,1.48-.04,2.19v.07c-.03.42-.09.83-.26,1.18-.16.29-.4.47-.69.59-.03.02-.07.02-.11.04-.08.02-.16.06-.24.07-.49.14-1.07.17-1.67.15-.59.02-1.18,0-1.66-.15-.08-.02-.16-.05-.24-.07-.03-.02-.07-.02-.1-.04-.29-.12-.54-.31-.68-.59h0c-.17-.35-.23-.76-.26-1.18v-.07c-.07-.71-.07-1.45-.04-2.19-.02-.82-.04-1.68.02-2.48M592.5,196c0-.86.02-1.41.36-1.65l.07-.05c.19-.1.35-.13.52-.12h.13c.14.02.27.05.4.12l.08.05c.21.15.29.42.33.8.02.12.03.23.02.35v2.09c0,.71.02,1.45-.02,2.06,0,.18-.02.35-.02.5,0,.21-.07.37-.16.52-.02.04-.05.08-.07.12h0c-.15.18-.35.27-.55.3h-.25c-.21-.02-.4-.12-.55-.29h0s-.05-.08-.07-.12c-.09-.15-.16-.31-.16-.52v-.28c-.04-.51-.04-1.15-.04-1.8s0-1.29.02-1.86v-.22M588.44,198.05v-2.05c0-.27,0-.5.02-.71,0-.07,0-.12.02-.19.05-.35.14-.62.35-.75l.07-.06c.13-.07.26-.1.39-.11h.18c.12,0,.25.03.39.11l.07.06c.2.13.3.4.34.75.02.07.02.12.02.19.02.21.02.44.02.71v.37c0,.53.02,1.1.02,1.68,0,.67,0,1.34-.04,1.87v.25s-.02.06-.02.09v.05s0,.02-.02.04c-.02.1-.05.19-.09.26-.03.07-.07.12-.11.16-.02.02-.03.04-.06.07-.07.07-.14.12-.22.16h-.02c-.07.03-.16.06-.24.07h-.24c-.09,0-.16-.03-.25-.07h0c-.08-.04-.16-.1-.23-.16-.02-.02-.04-.04-.06-.07-.04-.05-.07-.1-.11-.16-.04-.07-.07-.16-.09-.26t-.02-.04v-.05s-.02-.06-.03-.09v-.25c-.04-.54-.04-1.2-.03-1.87M588.45,205.34c.02-1.01.1-1.72.54-2.09l.08-.06c.26-.14.65-.26,1.13-.34.36-.07.75-.1,1.14-.1h.17c.39,0,.78.03,1.14.1.47.08.87.2,1.13.34l.08.06c.45.36.53,1.08.54,2.09.06.8.05,1.66.02,2.48.02.73.03,1.48-.04,2.19v.07c-.03.42-.09.83-.27,1.18-.15.29-.4.47-.68.59-.03.02-.07.02-.11.04-.07.02-.15.06-.23.07-.49.14-1.07.17-1.67.15-.59.02-1.17,0-1.67-.15-.08-.02-.16-.05-.23-.07-.03-.02-.08-.02-.11-.04-.29-.12-.54-.31-.68-.59-.18-.35-.24-.76-.26-1.18v-.07c-.07-.71-.07-1.45-.04-2.19-.02-.82-.03-1.68.02-2.48M584.32,197.59v-2.09c0-.12,0-.23.03-.35.04-.38.12-.65.33-.8l.07-.05c.15-.07.28-.11.41-.12h.24c.13.02.26.05.4.12l.07.05c.21.15.3.42.33.8.03.12.03.23.03.35v2.1c0,.7.02,1.44-.02,2.05,0,.18,0,.35-.02.5,0,.21-.07.37-.17.52-.02.04-.05.08-.07.12h0c-.15.17-.34.26-.54.29h-.25c-.21-.02-.4-.12-.54-.29q-.09-.11,0,0c.14.17-.05-.07-.07-.12-.1-.15-.17-.31-.17-.52,0-.15-.02-.32-.02-.5-.03-.61-.02-1.35,0-2.06M580.26,196.23v-.22c-.02-.86.02-1.41.35-1.65l.07-.05c.19-.1.36-.13.52-.12h.14c.13.02.27.05.4.12l.08.05c.2.15.29.42.32.8.02.12.03.23.03.35v2.1c0,.7.02,1.44-.02,2.05,0,.18,0,.35-.02.5,0,.21-.07.37-.17.52-.02.04-.05.08-.07.12h0c-.15.17-.34.26-.54.29h-.25c-.21-.02-.4-.12-.54-.29q-.09-.11,0,0c.14.17-.05-.07-.07-.12-.1-.15-.17-.31-.17-.52v-.27c-.04-.52-.04-1.15-.03-1.81v-1.86M580.26,205.34c.02-1.01.11-1.72.55-2.09l.08-.06c.25-.14.65-.26,1.12-.34.36-.07.75-.1,1.15-.1h.16c.39,0,.78.03,1.14.1.48.08.88.2,1.13.34l.08.06c.45.36.53,1.08.55,2.09.06.8.04,1.66.02,2.48.02.73.03,1.48-.04,2.19v.07c-.03.42-.09.83-.26,1.17h0c-.15.29-.4.47-.68.59-.03.02-.07.02-.1.04-.08.02-.16.06-.24.07-.49.14-1.07.17-1.67.15-.59.02-1.18,0-1.67-.15-.08-.02-.16-.05-.24-.07-.03-.02-.07-.02-.11-.04-.28-.12-.53-.31-.68-.59-.17-.35-.23-.76-.26-1.18v-.07c-.07-.71-.07-1.45-.04-2.19-.02-.82-.04-1.68.02-2.48M576.18,198.05v-2.05c0-.27,0-.5.02-.71,0-.07,0-.12.02-.19.05-.35.15-.62.35-.75l.07-.06c.13-.07.26-.1.39-.11h.18c.12,0,.26.03.39.11l.07.06c.21.13.3.4.35.75,0,.07.02.12.02.19.02.21.02.44.02.71v2.05c0,.67,0,1.34-.03,1.87,0,.08,0,.17-.02.25,0,.03-.02.06-.02.09v.09c-.02.1-.05.19-.1.27-.02.06-.07.11-.1.16-.03.02-.04.04-.06.07-.07.07-.15.12-.23.16h0c-.08.03-.16.06-.25.07h-.24c-.08,0-.16-.03-.25-.07h0c-.08-.04-.16-.1-.23-.16-.02-.02-.03-.05-.06-.07-.03-.05-.07-.1-.1-.16-.05-.08-.07-.17-.09-.27,0-.02-.02-.02-.02-.04v-.05s-.02-.06-.02-.09c0-.07,0-.16-.02-.25-.03-.54-.04-1.2-.03-1.87M572.07,196c0-.86.02-1.41.36-1.65l.07-.05c.16-.1.35-.14.53-.12.17-.02.35.02.53.12l.07.05c.34.24.37.79.35,1.65v.22c0,.57.02,1.22,0,1.86,0,.64,0,1.29-.03,1.81v.27c0,.21-.07.37-.17.52-.02.04-.04.08-.07.12t0,0c-.14.17-.34.26-.54.29h-.25c-.21-.02-.4-.12-.54-.29h0s-.05-.07-.07-.12c-.1-.15-.16-.31-.16-.52,0-.09,0-.18-.02-.27-.03-.52-.04-1.15-.03-1.81,0-.63,0-1.29.02-1.86v-.22M572.08,205.34c.02-1.01.11-1.72.55-2.09l.08-.06c.25-.14.65-.26,1.13-.34.35-.07.75-.1,1.14-.1h.16c.4,0,.78.03,1.15.1.47.08.87.2,1.12.34l.08.06c.45.36.54,1.08.55,2.09.06.8.05,1.66.02,2.48.02.73.03,1.48-.05,2.19v.07c-.03.42-.08.83-.26,1.17h0c-.16.3-.4.48-.68.6-.03.02-.07.02-.11.04-.07.02-.16.06-.24.07-.49.14-1.07.17-1.67.15-.59.02-1.17,0-1.67-.15-.08-.02-.16-.05-.23-.07-.04-.02-.07-.02-.11-.04-.29-.12-.54-.31-.68-.59-.18-.35-.24-.76-.27-1.18v-.07c-.07-.71-.07-1.45-.04-2.19-.02-.82-.03-1.68.02-2.48M568,195.99c0-.27,0-.5.02-.71,0-.07,0-.12.02-.19.04-.35.14-.62.34-.75l.08-.06c.13-.07.26-.1.39-.11h.17c.13,0,.26.03.39.11l.08.06c.2.13.3.4.34.75.02.07.02.12.02.19,0,.21.02.44.02.71v.37c0,.53,0,1.1.02,1.68,0,.67,0,1.34-.04,1.87v.25s-.02.06-.02.09v.05s-.02.02-.02.04c-.02.1-.05.19-.09.27-.03.06-.07.11-.11.16-.02.02-.03.04-.06.07-.07.07-.14.12-.23.16h0c-.07.03-.16.06-.24.07h-.24c-.08,0-.16-.03-.24-.07h0c-.09-.04-.16-.1-.23-.16-.02-.02-.04-.05-.06-.07-.04-.05-.07-.1-.11-.16-.04-.08-.07-.17-.09-.27t-.02-.04v-.05s-.02-.06-.02-.09v-.25c-.04-.54-.04-1.2-.04-1.87,0-.58,0-1.15.02-1.68v-.37M563.88,197.59v-2.09c0-.12,0-.23.02-.35.04-.38.12-.65.33-.8l.07-.05c.15-.07.28-.11.4-.12h.24c.13.02.26.05.4.12l.07.05c.21.15.3.42.33.8.02.12.03.23.02.35v2.1c0,.7.02,1.44-.02,2.05,0,.18,0,.35-.03.5,0,.21-.07.37-.16.52-.02.04-.05.08-.07.12h0c-.15.18-.34.27-.54.3h-.25c-.21-.02-.4-.12-.54-.29q-.09-.11,0,0c.14.17-.06-.07-.07-.12-.1-.15-.17-.31-.17-.52,0-.15-.02-.32-.02-.5-.03-.61-.02-1.35-.02-2.06M563.91,205.86c0-.23,0-.45.03-.68,0-.3.02-.59.05-.86h0c0-.14.03-.26.07-.38.02-.06.04-.11.06-.16.03-.05.06-.1.08-.15.03-.05.07-.1.1-.15.06-.07.12-.13.19-.19.02,0,.02-.02.02-.02.28-.22.63-.35,1.03-.4.31-.05.62-.07.93-.07.88,0,2.09-.06,2.77.4l.08.06c.51.4.56,1.25.57,2.47v.27c0,.59.02,1.24.02,1.88.02.77.03,1.54-.06,2.27-.02.13-.02.27-.03.4-.02.28-.1.5-.21.69v.03s-.02.02-.02.03c-.02.03-.05.07-.07.1-.05.07-.11.12-.17.18-.03.02-.06.05-.09.07s-.07.04-.1.07c-.25.16-.56.26-.88.33h-.02s-.09.02-.14.02c-.6.11-1.29.12-1.92.05-.61-.03-1.21-.12-1.62-.4l-.08-.07c-.5-.41-.55-1.28-.56-2.51v-.67c0-.85-.02-1.76,0-2.61M610.71,222.11l-.02.03c-.2.3-.6.44-.96.54-.35.09-.8.15-1.34.17h-.15c-.68.03-1.51.02-2.47.02h-36.87c-.95,0-1.77.02-2.47-.02h-.15c-.54-.02-.99-.08-1.34-.17-.36-.11-.77-.25-.96-.54l-.02-.03c-.08-.16-.05-.3.06-.42.18-.27.74-.46,1.35-.58.46-.09.96-.14,1.31-.14h41.28c.36,0,.85.05,1.32.14.6.12,1.16.31,1.35.58.1.12.13.26.05.42M610.71,218.52l-.02.03c-.2.3-.6.44-.96.54-.35.1-.8.16-1.34.18h-.15c-.68.03-1.51.02-2.47.02h-36.87c-.95,0-1.78.02-2.47-.02h-.15c-.54-.02-.99-.08-1.34-.18-.36-.1-.77-.24-.96-.54l-.02-.03c-.08-.16-.05-.3.06-.42.18-.27.74-.46,1.35-.58.46-.1.96-.14,1.31-.14h41.29c.36,0,.85.04,1.32.14.6.12,1.16.31,1.35.58.1.12.13.26.05.42M610.71,214.93l-.02.03c-.2.3-.6.44-.96.54-.35.1-.8.15-1.34.18h-.15c-.68.03-1.51.02-2.47.02h-36.87c-.95,0-1.78.02-2.47-.02h-.15c-.54-.03-.99-.08-1.34-.18-.36-.1-.77-.24-.96-.54l-.02-.03c-.08-.16-.05-.3.06-.42.18-.27.74-.46,1.35-.58.46-.1.96-.15,1.31-.14h41.29c.36,0,.85.04,1.32.14.6.12,1.16.31,1.35.58.1.12.13.26.05.42M610.72,210.14c0,.13-.02.27-.03.4-.02.28-.1.5-.21.69v.03s-.02.02-.02.03c-.02.03-.05.07-.07.1-.05.07-.1.12-.16.18-.03.02-.07.05-.1.07s-.07.04-.1.07c-.26.16-.55.26-.88.33h-.02s-.09.02-.13.02c-.61.11-1.3.12-1.93.05-.61-.03-1.21-.12-1.62-.4l-.08-.07c-.5-.41-.55-1.28-.55-2.51v-.67c-.02-.85-.03-1.76,0-2.61,0-.23.02-.45.02-.68.02-.3.02-.59.05-.86h0c.02-.14.04-.26.07-.38.02-.06.04-.11.07-.16.02-.06.05-.11.07-.16.03-.05.07-.1.1-.15.06-.07.12-.13.2-.19l.02-.02c.27-.22.64-.35,1.02-.4.31-.05.63-.07.93-.07.88,0,2.09-.06,2.78.4l.08.06c.5.4.55,1.25.56,2.47v.27c.02.59.02,1.24.02,1.88.02.77.02,1.54-.07,2.27"/>
  <path class="cls-16" d="M613.49,244.02v-10.15c.04-4.05-.07-4.49-3.13-4.41-8.69,0-40.04-.02-46.94.02-.98.05-1.76.07-2.04,1.06-.44,4.3-.07,8.93-.19,14.69v15.07c.03,2.19-.12,5.62.39,5.99l.03.04c.4.49,1.08.48,1.71.52,1.94.04,5.85,0,10.7.02h35.98c2.79-.02,3.37.02,3.45-2.39.08-6.7,0-13.68.03-20.46M604.58,234.53v-.62c.02-.32.02-.67.22-.92l.05-.05c.3-.25.89-.22,1.37-.22h.3c.48,0,1.07-.02,1.37.22l.05.05c.21.25.21.59.22.92v.62c0,.34.02.7-.04,1.01,0,.05,0,.1-.02.14,0,.02,0,.03-.02.05-.03.16-.09.32-.21.45-.07.07-.16.12-.26.15-.2.08-.42.11-.64.12h-1.24c-.22,0-.45-.03-.64-.12-.1-.03-.19-.08-.26-.15-.12-.12-.17-.28-.21-.45,0-.02,0-.03-.02-.05,0-.04-.02-.09-.02-.14-.05-.31-.04-.68-.03-1.01M594.85,234.53v-.62c.02-.32.02-.67.22-.92l.05-.05c.3-.25.89-.22,1.37-.22h.31c.48,0,1.07-.02,1.37.22l.05.05c.21.25.21.59.22.92v.62c0,.34,0,.7-.04,1.01,0,.05,0,.1-.02.14,0,.02,0,.03-.02.05-.03.16-.09.32-.21.45-.07.07-.16.12-.26.15-.2.08-.42.11-.64.12h-1.23c-.22,0-.45-.03-.64-.12-.1-.03-.19-.08-.26-.15-.12-.12-.17-.28-.21-.45,0-.02,0-.03-.02-.05,0-.04-.02-.09-.03-.14-.05-.31-.04-.68-.03-1.01M585.05,233.73c0-.26.04-.54.21-.73l.06-.05c.3-.25.88-.22,1.36-.22h.31c.48,0,1.06-.02,1.36.22l.06.05c.16.2.2.47.21.73.03.27.03.55,0,.83.02.32.02.66-.02.96,0,.04-.02.07-.02.11v.08c-.04.2-.11.35-.22.46-.07.07-.16.12-.25.15-.2.08-.42.11-.65.12h-1.23c-.23,0-.45-.03-.65-.12-.1-.03-.19-.08-.25-.15-.12-.11-.17-.26-.21-.46,0-.02-.02-.06-.02-.08,0-.03-.02-.07-.02-.11-.05-.31-.04-.64-.03-.96-.02-.28-.02-.56.02-.83M575.23,234.53v-.62c.02-.32.02-.67.22-.92l.05-.05c.31-.25.89-.22,1.37-.22h.31c.48,0,1.06-.02,1.36.22l.06.05c.2.25.2.59.22.92v.62c0,.34.02.7-.03,1.01,0,.05-.02.1-.03.14v.05c-.04.16-.1.32-.21.45-.07.07-.16.12-.26.15-.2.08-.41.11-.64.12h-1.23c-.23,0-.45-.03-.65-.12-.1-.03-.19-.08-.26-.15-.11-.12-.17-.28-.21-.45v-.05s-.03-.09-.03-.14c-.05-.31-.05-.68-.03-1.01M565.41,234.53v-.62c.02-.32.02-.67.22-.92l.05-.05c.3-.25.89-.22,1.37-.22h.31c.48,0,1.07-.02,1.37.22l.05.05c.17.2.2.47.22.73.03.27.02.55.02.83,0,.32,0,.67-.03.96,0,.04,0,.07-.02.11,0,.02,0,.06-.02.08-.04.2-.11.35-.21.46-.07.07-.17.12-.26.15-.2.08-.42.11-.64.12h-1.22c-.22,0-.45-.03-.64-.12-.1-.03-.19-.08-.26-.15-.12-.12-.17-.28-.21-.45,0-.02,0-.03-.02-.05,0-.04-.02-.09-.03-.14-.04-.31-.04-.68-.03-1.01M568.98,262.52s0,.07-.02.1c0,.03,0,.06-.02.09-.04.19-.11.35-.21.45-.07.07-.17.12-.26.16-.2.07-.42.1-.64.11h-1.22c-.22,0-.45-.03-.64-.11-.1-.04-.19-.09-.26-.16-.12-.12-.17-.28-.21-.44,0-.02,0-.03-.02-.05,0-.05-.02-.1-.03-.14-.04-.32-.04-.68-.03-1.02v-.61c.02-.32.02-.68.22-.92l.05-.05c.3-.24.89-.22,1.37-.22h.31c.48,0,1.07-.02,1.37.22l.05.05c.17.2.2.47.22.73.03.27.02.56.02.83,0,.33,0,.67-.03.97M578.79,262.54s-.02.09-.03.14v.05c-.04.16-.1.31-.21.44-.07.07-.16.12-.26.16-.2.07-.41.1-.64.11h-1.23c-.23,0-.45-.03-.65-.11-.1-.04-.19-.09-.26-.16-.11-.12-.17-.28-.21-.44v-.05s-.03-.1-.03-.14c-.05-.32-.05-.68-.03-1.01v-.62c.02-.32.02-.68.22-.92l.05-.05c.31-.24.89-.22,1.37-.22h.31c.48,0,1.06-.02,1.36.22l.06.05c.2.25.2.6.22.92v.62c0,.34.02.69-.03,1.01M588.61,262.52s-.02.07-.02.1v.09c-.04.19-.11.35-.22.45-.07.07-.16.12-.25.16-.2.07-.42.1-.65.11h-1.23c-.23,0-.45-.03-.65-.11-.1-.04-.19-.09-.25-.16-.12-.11-.17-.26-.21-.45,0-.03-.02-.06-.02-.09s-.02-.07-.02-.1c-.05-.31-.04-.64-.03-.97-.02-.27-.02-.56.02-.82,0-.27.04-.54.21-.74l.06-.05c.3-.24.88-.22,1.36-.22h.31c.48,0,1.06-.02,1.36.22l.06.05c.16.2.2.47.21.74.03.26.03.55,0,.82.02.33.02.67-.02.97M598.41,262.54s0,.09-.02.14c0,.02,0,.03-.02.05-.03.16-.09.31-.21.44-.07.07-.16.12-.26.16-.2.07-.42.1-.64.11h-1.23c-.22,0-.45-.03-.64-.11-.1-.04-.19-.09-.26-.16-.12-.12-.17-.28-.21-.44,0-.02,0-.03-.02-.05,0-.05-.02-.1-.03-.14-.05-.32-.04-.68-.03-1.01v-.62c.02-.32.02-.68.22-.92l.05-.05c.3-.24.89-.22,1.37-.22h.31c.48,0,1.07-.02,1.37.22l.05.05c.21.25.21.6.22.92v.62c0,.34,0,.69-.04,1.01M608.14,262.54s0,.09-.02.14c0,.02,0,.03-.02.05-.03.16-.09.31-.21.44-.07.07-.16.12-.26.16-.2.07-.42.1-.64.11h-1.24c-.22,0-.45-.03-.64-.11-.1-.04-.19-.09-.26-.16-.12-.12-.17-.28-.21-.44,0-.02,0-.03-.02-.05,0-.05-.02-.1-.02-.14-.05-.32-.04-.68-.03-1.01v-.62c.02-.32.02-.68.22-.92l.05-.05c.3-.24.89-.22,1.37-.22h.3c.48,0,1.07-.02,1.37.22l.05.05c.21.25.21.6.22.92v.62c0,.34.02.69-.04,1.01M610.15,258.18c-.12.21-.5.35-.9.43h0s-.03,0-.05.02c-.31.07-.62.09-.85.09h-41.07c-.23,0-.54-.02-.84-.09-.02,0-.04,0-.06-.02h0c-.4-.08-.77-.22-.9-.43-.07-.1-.09-.21-.03-.32l.02-.02c.14-.21.42-.32.68-.4.32-.1.77-.13,1.3-.15h40.73c.54.02.98.05,1.3.15.26.07.54.18.68.4l.02.02c.07.12.04.22-.03.32M568.67,242.79s-.02.06-.02.09c0,.02,0,.05-.02.08-.03.17-.09.31-.2.41-.07.07-.15.11-.24.14-.18.07-.38.1-.59.1h-1.12c-.21,0-.41-.02-.59-.1-.09-.03-.17-.07-.24-.14-.11-.11-.16-.25-.19-.4v-.04s-.02-.08-.03-.13c-.04-.29-.04-.62-.03-.92v-.56c.02-.3.02-.62.2-.84l.05-.05c.27-.22.81-.2,1.25-.2h.28c.44,0,.97-.02,1.25.2l.05.05c.16.18.18.43.2.67.02.25.02.5,0,.76,0,.3.02.61-.02.89M565.41,254.34v-.56c.02-.3.02-.62.2-.84l.05-.04c.27-.22.81-.21,1.25-.21h.28c.44,0,.97-.02,1.25.21l.05.04c.16.18.18.43.2.68s.02.5,0,.76c0,.3.02.61-.02.88,0,.03-.02.07-.02.09,0,.03,0,.06-.02.08-.03.17-.09.32-.2.42-.07.06-.15.1-.23.14-.18.07-.39.09-.59.1h-1.12c-.21,0-.41-.03-.59-.1-.09-.04-.17-.08-.24-.14-.11-.12-.16-.26-.19-.4v-.05l-.03-.12c-.04-.29-.04-.62-.03-.93M570.81,245.48c.02-.15.07-.29.16-.4t.02-.03s.03-.02.05-.04.04-.03.07-.05c.02,0,.04-.02.07-.02.02-.02.04-.02.07-.03h0c.19-.06.4-.07.6-.07.3-.02.63-.02.92,0,.41,0,.84,0,1.06.18l.04.05c.15.21.16.54.16.87v.53c0,.26,0,.53-.09.75,0,0,0,.02-.02.02-.02.05-.06.1-.1.14,0,.02-.02.02-.03.04h0s-.08.05-.13.07c-.02,0-.03.02-.07.03h0c-.07.03-.16.04-.25.06h-.08c-.22.02-.45.02-.68.02h-.8c-.36,0-.62-.03-.76-.17l-.04-.05c-.21-.29-.15-.82-.16-1.21v-.08c0-.21,0-.4.02-.59M574.01,250.14c0,.17,0,.34-.02.5,0,.17-.02.34-.1.48-.02.06-.05.11-.08.14-.02.02-.03.02-.05.04s-.04.03-.07.05c0,0-.02,0-.03.02-.16.08-.33.12-.52.12h-.95c-.45,0-1,.02-1.23-.19l-.04-.05c-.19-.27-.16-.73-.16-1.12v-.5c0-.17.03-.34.1-.48.02-.06.06-.11.09-.14.02-.02.03-.02.04-.03.02-.02.04-.04.07-.06t.04-.02c.15-.08.33-.11.51-.12h.94c.45,0,1-.03,1.24.18l.04.05c.18.27.16.73.16,1.12M575.27,253.53s0-.07.02-.1v-.07c.04-.18.1-.32.2-.42.03-.02.07-.05.11-.07.03-.02.07-.04.11-.06.31-.12.68-.11,1.02-.12h.08c.46.02,1.14-.06,1.45.21l.05.04c.19.22.19.54.2.84v.65c0,.32,0,.62-.03.88,0,.03-.02.07-.02.1v.07c-.04.16-.1.29-.19.37-.02.02-.04.03-.07.04-.06.04-.12.07-.17.1-.33.12-.73.09-1.09.11h-.19c-.44,0-.98.02-1.26-.21l-.05-.04c-.15-.18-.18-.43-.19-.68-.03-.25-.03-.5-.02-.76,0-.3,0-.61.03-.88M575.26,241.1v-.03s.02-.1.03-.15c.03-.17.1-.33.2-.45.09-.07.18-.13.29-.16.31-.11.7-.07,1.04-.09h.19c.45,0,.99-.02,1.26.2l.05.05c.17.21.19.5.2.78.03.3.03.63.02.95,0,.3-.02.59-.09.83,0,.02,0,.06-.02.08-.03.09-.07.16-.13.22,0,0-.02.02-.02.03-.02.02-.04.03-.07.05-.02,0-.03.02-.06.04-.02,0-.04.02-.06.02-.11.06-.23.09-.36.11h-.79c-.45,0-1.14.06-1.45-.2l-.05-.05c-.18-.22-.18-.54-.2-.84v-.59c0-.28-.02-.58.02-.85M580.64,245.48c.02-.15.07-.29.16-.4t.02-.03s.03-.02.05-.04.04-.03.07-.05c.02,0,.04-.02.07-.02.02-.02.04-.02.07-.03h0c.19-.06.4-.07.6-.07.3-.02.63-.02.92,0,.41,0,.84,0,1.05.18l.05.05c.15.21.16.54.16.87v.53c0,.26,0,.53-.09.75l-.02.02s-.06.1-.1.14c0,.02-.02.02-.03.04h0s-.08.05-.13.07c-.02,0-.03.03-.07.03h0c-.08.03-.16.04-.26.06h-.08c-.22.02-.45.02-.68.02h-.8c-.36,0-.62-.03-.76-.17l-.04-.05c-.21-.29-.15-.82-.16-1.21v-.08c0-.21,0-.4.02-.59M580.62,249.63c0-.17.03-.34.1-.48.02-.06.06-.11.09-.14.02-.02.03-.02.04-.03.02-.02.04-.04.07-.06,0,0,.02,0,.04-.02.15-.08.33-.11.51-.12h.93c.46,0,1.01-.03,1.24.18l.05.05c.18.27.16.73.16,1.12,0,.17,0,.34-.02.5,0,.17-.03.34-.1.49-.02.05-.05.1-.09.13,0,.02-.03.02-.04.04-.02.02-.04.03-.07.05,0,0-.03,0-.03.02-.16.08-.33.12-.52.12h-.95c-.45,0-1,.02-1.23-.19l-.04-.05c-.19-.27-.16-.73-.16-1.12,0-.17,0-.34.02-.5M588.32,242.79v.09s0,.05-.02.08c-.04.17-.1.31-.2.41-.13.12-.29.17-.45.21-.25.05-.53.03-.78.04h-.09c-.46,0-1.14.06-1.45-.2l-.05-.05c-.19-.22-.19-.54-.2-.84v-.59c0-.28-.02-.58.02-.85v-.03l.03-.15c.04-.17.1-.33.21-.45.04-.04.09-.07.14-.1.1-.05.2-.08.31-.11.28-.06.59-.03.87-.05h.19c.44,0,.99-.02,1.26.2l.05.05c.15.18.18.43.19.67.03.25.02.5.02.76,0,.3,0,.61-.03.89M585.1,253.53v-.1s0-.05.02-.07c.04-.17.1-.32.2-.42.03-.02.07-.05.11-.07.03-.02.07-.04.11-.06.31-.12.68-.11,1.02-.12h.09c.46.02,1.14-.06,1.45.21l.05.04c.19.22.19.54.2.84v.59c0,.29.02.58-.02.85v.04s-.02.1-.02.14c-.04.18-.1.34-.21.45-.04.03-.09.07-.14.09-.34.19-.78.14-1.19.16h-.19c-.44,0-.98.02-1.26-.21l-.05-.04c-.15-.18-.18-.43-.19-.68-.03-.25-.03-.5-.02-.76,0-.3,0-.61.03-.88M590.46,245.48c.02-.15.07-.29.16-.4t.02-.03s.03-.02.05-.04.04-.03.07-.05c.02,0,.04-.02.07-.02.02-.02.04-.02.07-.03h0c.18-.06.4-.07.6-.07.31-.02.63-.02.92,0,.41,0,.84,0,1.05.18l.05.05c.15.21.16.54.16.87v.54c0,.26,0,.53-.09.75l-.02.02s-.06.1-.1.14c0,.02-.02.02-.03.04h0s-.08.05-.13.07c-.02,0-.03.03-.07.03h0c-.08.03-.16.04-.26.06h-.09c-.22.02-.44.02-.67.02h-.8c-.36,0-.62-.03-.76-.17l-.04-.05c-.22-.29-.15-.82-.16-1.21v-.08c0-.21,0-.4.02-.59M590.45,249.63c0-.17.03-.34.1-.48.03-.06.06-.11.09-.14,0-.02.02-.02.04-.03.02-.02.04-.04.07-.06,0,0,.02,0,.03-.02.16-.08.33-.11.52-.12h.93c.46,0,1.01-.03,1.24.18l.05.05c.18.27.16.73.16,1.12,0,.17,0,.34-.02.5,0,.17-.03.34-.1.49-.02.05-.06.1-.09.13,0,.02-.03.02-.04.04-.03.02-.04.03-.07.05,0,0-.03,0-.03.02-.16.08-.33.12-.52.12h-.95c-.45,0-1,.02-1.23-.19l-.04-.05c-.19-.27-.16-.73-.16-1.12,0-.17,0-.34.02-.5M594.89,241.97c0-.31-.02-.63.03-.93,0-.04,0-.08.02-.12,0-.02,0-.03.02-.04.03-.15.08-.29.19-.4.07-.07.15-.11.24-.14.18-.07.38-.1.59-.1h1.11c.21,0,.41.02.59.1.09.03.17.07.24.14.11.11.16.25.19.4,0,0,0,.02.02.04,0,.04,0,.08.02.12.05.3.04.63.03.93v.56c0,.3,0,.62-.2.84l-.05.05c-.27.22-.81.2-1.25.2h-.29c-.44,0-.97.02-1.24-.2l-.05-.05c-.19-.22-.19-.54-.2-.84v-.56M594.93,253.52s0-.08.02-.12c0-.02,0-.03.02-.05.03-.15.08-.29.19-.4.07-.06.15-.11.24-.14.18-.07.38-.09.59-.1h1.11c.21,0,.41.03.59.1.09.03.17.08.24.14.11.12.16.26.19.4,0,.02,0,.03.02.05,0,.04,0,.08.02.12.05.29.04.62.03.93v.56c0,.29,0,.62-.2.84l-.05.04c-.27.22-.81.21-1.25.21h-.29c-.44,0-.97.02-1.24-.21l-.05-.04c-.19-.22-.19-.55-.2-.84v-.56c0-.31-.02-.64.03-.93M600.31,245.48c.03-.15.07-.29.16-.4t.02-.03s.03-.02.05-.04.04-.03.07-.05c.02,0,.04-.02.06-.02.03-.02.05-.02.07-.03h0c.18-.06.39-.07.6-.07.31-.02.63-.02.92,0,.41,0,.84,0,1.05.18l.05.05c.15.21.16.54.16.87v.54c0,.26,0,.53-.09.75l-.02.02s-.06.1-.1.14c0,.02-.02.02-.03.04h0s-.08.05-.13.07c-.02,0-.03.03-.07.03h0c-.08.03-.16.04-.25.06h-.09c-.21.02-.44.02-.67.02h-.8c-.35,0-.62-.03-.76-.17l-.04-.05c-.21-.29-.15-.82-.16-1.21v-.08c0-.21,0-.4.02-.59M600.29,249.63c0-.17.03-.34.1-.48.02-.06.06-.11.09-.14.02-.02.03-.02.04-.03.02-.02.04-.04.07-.06,0,0,.02,0,.03-.02.16-.08.33-.11.52-.12h.93c.46,0,1.01-.03,1.24.18l.05.05c.18.27.16.73.16,1.12,0,.17,0,.34-.02.5,0,.17-.03.34-.1.49-.02.05-.06.1-.09.13,0,.02-.02.02-.04.04s-.04.03-.07.05c0,0-.02,0-.03.02-.16.08-.33.12-.52.12h-.93c-.45,0-1,.02-1.23-.19l-.04-.05c-.19-.27-.16-.73-.16-1.12,0-.17,0-.34.02-.5M604.74,241.97c0-.31-.02-.63.03-.93,0-.04,0-.08.02-.12,0-.02,0-.03.02-.04.03-.15.08-.29.19-.4.07-.07.15-.11.24-.14.18-.07.38-.1.59-.1h1.11c.21,0,.41.02.59.1.09.03.17.07.24.14.11.11.16.25.19.4,0,0,0,.02.02.04,0,.04.02.08.02.12.05.3.04.63.03.93v.56c0,.3-.02.62-.2.84l-.05.05c-.27.22-.81.2-1.25.2h-.29c-.44,0-.97.02-1.25-.2l-.05-.05c-.19-.22-.19-.54-.2-.84v-.56M604.77,253.52s0-.08.02-.12c0-.02,0-.03.02-.05.03-.15.08-.29.19-.4.07-.06.15-.11.24-.14.18-.07.38-.09.59-.1h1.1c.21,0,.41.03.59.1.09.03.17.08.24.14.11.12.16.26.19.4,0,.02,0,.03.02.05,0,.04.02.08.02.12.05.29.04.62.03.93v.56c0,.29-.02.62-.2.84l-.05.04c-.27.22-.81.21-1.25.21h-.29c-.44,0-.97.02-1.25-.21l-.05-.04c-.19-.22-.19-.55-.2-.84v-.56c0-.31-.02-.64.03-.93M610.15,238.53c-.12.21-.5.35-.9.43h-.05c-.31.07-.62.1-.85.1h-41.07c-.23,0-.54-.03-.84-.1h-.07c-.4-.08-.77-.22-.9-.43-.07-.1-.09-.21-.03-.32l.02-.02c.14-.21.42-.32.68-.4.32-.1.77-.13,1.3-.15h40.73c.54.02.98.05,1.3.15.26.07.54.18.68.4l.02.02c.07.12.04.22-.03.32"/>
  <path class="cls-5" d="M416.23,66.54c-.04,3.9.04,8.44,0,12.15v1.47c.07,1.26-.05,2.77.99,3.56,1.7.93,3.76.57,6.08.67,2.93-.25,7.59.74,9.51-1.16l.07-.08c1.29-2.01,1.52-8.72-1.5-9.5-1.62-.62-4.39-.35-6.52-.65-1.35-.11-4.56-.79-1.02-1.45,2.68-.71,6.51.39,8.77-1.57,1.44-1.41,1.83-7.93-.45-9.29-1.09-.61-2.33-.61-3.72-.66-2.31-.02-5.4-.02-7.63,0-2.94.03-4.43.34-4.52,3.01-.02.64-.04,1.34-.05,2.09v1.41"/>
  <path class="cls-5" d="M388.6,57.56c3.19,1.09,10.8-.06,14.14,1.13,4.2,1.47,9.78,1.73,13.97.18l.11-.03c3.61-1.42,11.31-.14,14.82-1.27,2.44-.98,2.41-4.2,1.67-5.75-.48-.97-1.47-1.04-2.5-1.05-8.45.07-34.08-.16-42.48.09-2.62.44-2.4,5.79.29,6.72"/>
  <path class="cls-5" d="M376.12,84.37c5.73-.11,19.55.33,26.28-.19,1.83-.49,1.43-2.71,1.55-4.25-.03-1.53-.02-3.3,0-5.17-.02-3.06-.05-6.37,0-9.16-.03-1.2-.07-2.33-.15-3.35-.31-2.37-2.34-2.16-4.54-2.24-1.63-.01-3.75,0-5.96,0h-7.18c-2.6,0-4.23.08-4.98,1.23l-.06.08c-1,2.01-.88,5.44-.27,7.65.53,1.76,2.35,2.12,3.99,2.18,3.18.16,8.37-.13,11.1.26,3.45.38,3.46,1.57-1.46,1.74-4.57.04-10.52,0-15.33.02-3.03.01-5.01-.11-5.9,1-1.25,1.91-.89,4.64-.81,6.82.13,2.53,1.32,3.43,3.71,3.36"/>
  <path class="cls-5" d="M369.24,94.97c16.02-.09,52.97.18,63.19-.1,2.1-.51,1.73-6.24-.09-7.5-2.81-1.84-7.48-.71-10.82-1.14-5.28-.35-8.25-2.29-13.16-1.71-2.95.18-5.11,1.56-7.98,1.75-7.18.1-20.85,0-29.77.04-2.79.03-4.27-.19-4.97,1.46l-.04.09c-.58,1.77-.52,4-.03,5.81.46,1.5,1.58,1.27,3.67,1.29"/>
  <path class="cls-15" d="M555.4,257.61v-34.89c0-1.53,0-2.92-.02-4.36.2-3.22-2-2.32-4.85-2.47h-38.96c-2,.08-6.75-.27-7.33.44-.91,1.09-.35,6.38-.49,8.61v39.44c.04,2.42.45,2.46,3.4,2.47h40.6c1.96-.08,6.65.27,7.18-.44l.03-.03c.32-.36.35-.87.4-1.38.07-1.39.02-3.97.03-7.39M538.72,252.49c-.05,4.25.61,5.39-4.49,5.13h-9.89c-2.18.02-4.04.16-3.92-2.43-.02-3.4-.11-9.3.05-13.23.13-4.78,3.77-9.72,8.76-9.82h.22c3.36-.1,6.6,1.99,8.03,5.01,1.98,3.7,1.03,10.3,1.25,15.34M542.96,240.14l-.07.09c-1.92,1.39-3.45-3.54-4.41-4.81-4.58-7.5-15.82-6.11-18.9,1.95-.61,1.15-2,3.88-3.26,2.82-.43-.45-.65-1.51-.42-2.69,2.23-9.98,15.25-14.26,22.82-7.31,2.44,2.25,5.64,6.62,4.24,9.94"/>
  <path class="cls-7" d="M402.27,38.93c.14,2.52,2.11,4.57,4.63,4.66,8.28.31,22.54-.2,39.59.02,15.16-.06,39.44.14,50.92-.08,1.08-.23-1.32-2.37-1.62-2.86-2.94-3.28-9.46-10.55-12.8-14.22-1.14-1.22-2.29-2.37-3.87-2.89l-.12-.04c-4.23-1.54-11.68,1.33-12.88-4.25-.5-2.07-.41-4.6-1.97-6.24-2.5-2.55-7.33-.64-10.11-2.5-3.21-2.04-1.27-7.25-4.23-9.44-2.07-1.38-9.39-1.82-11.14.96-1.48,2.39-.61,6.11-2.81,8.11-3.06,2.73-9.01-.3-11.26,3.79-2.15,4.74.43,9.12-6.74,8.99-2.89.05-6.94,0-9.85.04-4.36-.04-5.78.71-5.72,5.23-.05,3.11-.02,7.76-.01,10.7v.05"/>
  <path class="cls-11" d="M457.92,103.71c-3.39-.3-7.37-.05-11.3.65-2.17.39-4.29,1.25-6.02,2.63-.86.68-1.61,1.5-2.21,2.43-.65,1.01-1.09,1.31-1.96,2.16-1.01.97-2.19,1.76-3.45,2.36-2.71,1.28-5.73.14-8.63.8-2.28.52-3.95,2.51-4.03,4.83-.07,2.02.15,12.4.03,15.42v10.07c0,1.34-.02,2.56.02,3.82.07,2.09.57,2.23,3.11,2.24,7.65.02,15.73,0,23.44,0h10.07c4.57,0,4.41-4.05,4.41-7.85,0-10.44.42-23.83.42-31.43-.04-1.3.63-7.64-3.91-8.14M423.97,135.45c0-.08,0-.16.02-.23v-.09c.02-.08.05-.17.08-.25v-.02c.09-.18.22-.33.41-.41h0c.08-.03.17-.06.27-.07.09,0,.21-.02.33-.02.43-.04.95-.05,1.48-.04.53,0,1.06,0,1.48.04.12,0,.23.02.33.02.1.02.18.04.26.07q.05.02,0,0h0c.19.08.32.23.4.41v.02c.04.07.07.16.08.25v.09c.02.07.02.15.02.23v.04c0,.24-.07.47-.16.65l-.07.08c-.21.23-.67.26-1.32.26h-.08c-.32.02-.65,0-.98,0h-1.06c-.65,0-1.1-.03-1.31-.26l-.07-.08c-.11-.18-.16-.41-.17-.65v-.04h.06ZM429.2,146.87c0,.24-.07.48-.16.65l-.07.08c-.21.24-.67.26-1.32.26h-2.12c-.65,0-1.1-.02-1.31-.26l-.07-.08c-.11-.17-.16-.41-.17-.65v-.04c0-.08,0-.16.02-.23v-.08c.02-.09.05-.17.08-.26v-.02c.09-.17.22-.32.41-.41h0c.08-.03.17-.06.27-.07.09,0,.21,0,.33-.02.43-.04.95-.06,1.48-.05.53,0,1.06,0,1.48.05.12,0,.23,0,.33.02.1.02.18.04.26.08h.02c.19.09.32.24.4.41v.02c.04.08.07.16.08.26v.08c.02.07.02.15.02.23v.04h.04ZM429.06,141.81l-.06.08c-.11.07-.24.12-.39.16-.09.04-.2.06-.31.07-.49.07-1.11.06-1.72.03-.59.02-1.21.03-1.71-.03-.12,0-.23-.02-.32-.07-.15-.04-.28-.09-.38-.16l-.07-.08c-.09-.2-.15-.47-.14-.74v-.15c.03-.31.16-.59.44-.74.02,0,.02-.02.04-.02h.05s.05-.03.08-.03c.12-.02.26-.03.45-.04.44-.04.99-.06,1.55-.05.57,0,1.12,0,1.56.05.17,0,.33.02.45.04.02,0,.05.02.07.03h.06s.02.02.03.02c.27.15.4.43.44.74,0,.05.02.1.02.15,0,.27-.06.54-.15.74M436.34,146.84c0,.26-.07.53-.16.72l-.07.08c-.21.22-.68.22-1.37.22h-.53c-.87.04-1.86.09-2.51-.09h-.03s-.02,0-.02-.02c-.09-.02-.19-.06-.26-.1l-.07-.08c-.1-.2-.16-.48-.16-.76v-.02c0-.21.04-.43.12-.61,0-.02.02-.02.03-.04.03-.06.07-.12.12-.17.03-.04.08-.07.13-.09.03-.02.07-.05.11-.07h.03c.07-.03.16-.06.26-.07h.21c.38-.04.85-.05,1.34-.05.59-.02,1.22-.02,1.73.04h.28c.18.02.31.07.43.16.02,0,.05,0,.07.02,0,.02.02.03.02.05.21.21.28.53.28.86v.03M431.18,141.26v-.34c.03-.33.18-.63.49-.77h0c.38-.09,1.22-.14,2.07-.14s1.69.05,2.07.14h0c.31.13.46.44.49.77v.37c-.02.2-.07.38-.14.52l-.07.08c-.09.06-.21.11-.34.15-.09.03-.2.05-.31.06-.5.07-1.11.07-1.72.05-.61.02-1.24.02-1.72-.05-.11,0-.21-.02-.31-.06-.13-.04-.25-.09-.34-.15l-.07-.08c-.07-.14-.12-.32-.14-.52v-.03M436.34,135.47c0,.26-.07.53-.16.72l-.07.08c-.21.22-.68.22-1.37.22h-.54c-.87.04-1.86.08-2.5-.1h-.03s-.02,0-.02-.02c-.09-.03-.19-.06-.26-.1l-.07-.08c-.1-.2-.16-.48-.16-.76v-.03c0-.21.04-.43.12-.6,0-.02.02-.02.02-.04.04-.06.08-.12.13-.17.03-.04.08-.07.13-.1.03-.02.07-.05.11-.07h.03c.07-.03.16-.06.26-.07h.21c.38-.03.85-.04,1.34-.04.59-.02,1.22-.02,1.73.04h.28c.18,0,.31.07.43.16.02.02.05.02.07.02,0,.02.02.03.02.04.21.21.28.54.28.86v.04M445.54,135.45c0-.08,0-.16.02-.23,0-.03,0-.06.02-.09.02-.08.04-.17.07-.25v-.02c.09-.18.22-.33.41-.41h0c.08-.03.17-.06.27-.07.09,0,.21-.02.33-.02.43-.04.95-.05,1.48-.04.53,0,1.06,0,1.48.04.12,0,.23.02.33.02.1.02.18.04.26.07q.05.02,0,0h0c.19.08.32.23.4.41v.02c.04.07.07.16.08.25v.09c.02.07.02.15.02.23v.04c0,.24-.07.47-.16.65l-.07.08c-.22.23-.67.26-1.32.26h-.08c-.32.02-.65,0-.98,0h-1.05c-.66,0-1.1-.03-1.32-.26l-.07-.08c-.11-.18-.16-.41-.17-.65v-.04h.05ZM443.56,146.84c0,.26-.07.53-.16.72l-.07.08c-.21.22-.68.22-1.38.22h-.53c-.87.04-1.86.09-2.5-.09h-.03s-.02,0-.02-.02c-.1-.02-.2-.06-.27-.1l-.07-.08c-.09-.2-.16-.48-.16-.76v-.02c0-.21.03-.43.12-.61,0-.02.02-.02.02-.04.04-.06.07-.12.12-.17.04-.04.09-.07.14-.09.03-.02.07-.05.11-.07h.02c.08-.03.17-.06.27-.07h.21c.38-.04.85-.05,1.34-.05.6-.02,1.23-.02,1.74.04h.27c.18.02.32.07.44.16.02,0,.05,0,.07.02,0,.02.02.03.02.05.21.21.29.53.28.86v.03h.02ZM443.55,141.25v.04c-.02.2-.07.38-.14.52l-.07.08c-.1.06-.21.11-.34.15-.09.03-.2.05-.31.06-.5.07-1.11.07-1.72.05-.62.02-1.24.02-1.72-.05-.12,0-.22-.02-.31-.06-.13-.04-.25-.09-.35-.15l-.07-.08c-.07-.14-.12-.32-.13-.52v-.37c.04-.33.19-.63.5-.77.38-.09,1.23-.14,2.08-.14s1.69.05,2.07.14c.32.13.46.44.5.77v.33M443.56,135.47c0,.26-.07.53-.16.72l-.07.08c-.21.22-.68.22-1.38.22h-.53c-.87.04-1.86.08-2.5-.1h-.03s-.02,0-.02-.02c-.1-.03-.2-.06-.27-.1l-.07-.08c-.09-.2-.16-.48-.16-.76v-.03c0-.21.03-.43.12-.6,0-.02.02-.02.02-.04.03-.06.07-.12.12-.17.04-.04.09-.07.14-.1.03-.02.07-.05.11-.07h.02c.08-.03.17-.06.27-.07h.21c.38-.03.85-.04,1.34-.04.6-.02,1.23-.02,1.74.04h.27c.18,0,.32.07.44.16.02.02.05.02.07.02,0,.02.02.03.02.04.21.21.29.54.28.86v.04h.02ZM450.77,146.87c0,.24-.07.48-.16.65l-.07.08c-.22.24-.67.26-1.32.26h-2.11c-.66,0-1.1-.02-1.32-.26l-.07-.08c-.11-.17-.16-.41-.17-.65v-.04c0-.07,0-.16.02-.23,0-.03,0-.06.02-.08.02-.09.04-.17.07-.26v-.02c.09-.17.22-.32.41-.41h0c.08-.03.17-.06.27-.07.09,0,.21,0,.33-.02.43-.04.95-.06,1.48-.05.53,0,1.06,0,1.48.05.12,0,.23,0,.33.02.1.02.18.04.26.08h.02c.19.09.32.24.4.41v.02c.04.08.07.16.08.26v.08c.02.07.02.15.02.23v.04h.03ZM450.63,141.81l-.06.08c-.11.07-.24.12-.39.16-.09.04-.2.06-.31.07-.49.07-1.11.06-1.71.03-.59.02-1.21.03-1.71-.03-.12,0-.22-.02-.32-.07-.15-.04-.28-.09-.38-.16l-.07-.08c-.09-.2-.15-.47-.14-.74v-.15c.03-.31.16-.59.44-.74.02,0,.02-.02.04-.02h.05s.05-.03.08-.03c.12-.02.26-.03.45-.04.44-.04.99-.06,1.55-.05.57,0,1.12,0,1.56.05.17,0,.33.02.45.04.02,0,.05.02.07.03h.06s.02.02.03.02c.27.15.4.43.44.74,0,.05.02.1.02.15,0,.27-.06.54-.15.74M457.92,146.8c0,.28-.07.56-.16.76l-.07.08c-.07.04-.17.07-.26.1l-.02.02h-.03c-.63.18-1.62.13-2.5.09h-.53c-.69,0-1.16,0-1.37-.22l-.07-.08c-.09-.19-.15-.45-.16-.72v-.03c0-.33.07-.65.28-.86,0-.02.02-.03.02-.05.02,0,.05,0,.07-.02.12-.09.25-.15.43-.16h.27c.52-.07,1.15-.06,1.74-.04.49,0,.96,0,1.34.05h.21c.1,0,.18.03.26.07h.02s.07.05.11.07c.05.02.09.05.13.09.05.05.09.12.12.17,0,.02.02.02.02.04.09.18.13.4.13.61v.02h.02ZM452.75,141.01v-.09c.03-.33.18-.63.49-.77h0c.38-.09,1.22-.14,2.07-.14s1.69.05,2.07.14h0c.31.13.46.44.49.77v.37c-.02.2-.07.38-.14.52l-.07.08c-.09.06-.21.11-.34.15-.09.03-.2.05-.31.06-.49.07-1.11.07-1.72.05-.61.02-1.23.02-1.72-.05-.11,0-.21-.02-.31-.06-.13-.04-.25-.09-.34-.15l-.07-.08c-.07-.14-.12-.32-.14-.52v-.04c0-.07-.02-.16,0-.24M457.92,135.43c0,.28-.07.56-.16.76l-.07.08c-.07.04-.17.07-.26.1l-.02.02h-.03c-.63.18-1.62.14-2.5.1h-.53c-.69,0-1.16,0-1.37-.22l-.07-.08c-.09-.19-.15-.45-.16-.72v-.04c0-.32.07-.64.28-.86,0,0,.02-.02.02-.04.02,0,.05,0,.07-.02.12-.08.25-.15.44-.16h.27c.52-.07,1.15-.07,1.74-.04.49,0,.96,0,1.34.04h.21c.1,0,.18.03.26.07h.02s.07.05.11.07c.05.03.09.06.13.1.05.05.09.12.13.18,0,0,.02.02.02.03.09.17.13.39.13.6v.03h0Z"/>
  <path class="cls-14" d="M374.04,108.35c14.11-.13,43.23.26,57.03-.15l.11-.02c4.26-.76,4.47-8.39-.51-8.27-12.98-.12-47.45,0-60.26-.04-1.24.01-2.67,0-3.63.64-2.14,1.45-2.06,5.66-.38,7.08,1.64,1.28,5.13.59,7.63.76"/>
  <path class="cls-18" d="M451.25,95.91c14.11-.13,80.96.26,94.75-.15l.11-.02c4.26-.76,4.47-8.39-.51-8.27-12.98-.12-85.18,0-97.98-.04-1.24.01-2.67,0-3.63.64-2.14,1.45-2.06,5.66-.38,7.08,1.64,1.28,5.13.59,7.63.76"/>
  <path class="cls-10" d="M668.5,249.38c2.83,1.99,8.14-1.49,7.3-5.05l-.02-.1c-.36-2.43-2.78-4.57-5.27-4.84-.76-.12-1.5-.18-2.08.26-1.11,1.14-.69,3.11-.79,4.61.07,2.21-.25,3.82.86,5.13"/>
  <path class="cls-10" d="M698.79,260.03c-5.89,0-23.75-.01-28.97,0-1.8-.1-2.05,1.28-2.09,2.99-.03,1.06.02,2.19.26,2.9l.02.07c.37,1.07,1.31.94,3.1.94,1.33-.01,2.63-.02,4-.03,6.28-.06,19.19-.15,24.13-.22,1.74.11,2.05-1.32,2.08-2.88.03-.98,0-2.33-.45-3.09-.36-.6-1.02-.67-2.09-.67"/>
  <path class="cls-10" d="M700.96,239.98c-.51-.81-1.5-.72-2.39-.55-2.4.33-4.62,2.48-4.96,4.82l-.02.1c-.78,3.42,4.16,6.97,6.99,5.1,1.05-1.15.76-2.99.83-4.48-.06-2.11.19-3.77-.45-5"/>
  <path class="cls-10" d="M667.72,212.67v17.71c.13,2.63-.43,5.97.94,6.33,1.21.03,2.54-.78,3.76-1.14,2.1-.74,3.73-.94,4.83-2.56l.06-.09c2.17-3.66,3.44-8.61,6.98-11.3,1.6-.72,4.26,4.35,5.17,6.06,1.46,2.72,2.08,6.34,5.45,7.23,1.04.34,2.29.74,3.33,1.12,1.16.34,1.89.8,2.6.21.4-.53.4-1.26.46-1.96.08-2.07.02-5.5.04-8.71v-3.89c-.01-2.25-.14-4.95-.66-5.48-.44-.45-1.33-1.18-1.88-1.52-5.24-3.24-23.35-18.6-29.49-18.48-2.21,0-1.41,14.24-1.58,16.47"/>
  <path class="cls-1" d="M591.6,181.87h.02v-.39c0,.13-.01.25-.02.38"/>
  <path class="cls-18" d="M567.16,93.2c-6.8-7.34-20.59-22.17-33.01-36.5-5.33-6.15-14.88-6.12-17.86-5.94-19.95-.01-54.51,0-67.16,0-1.97.12-4.47-.39-6.11.66l-.06.04c-1.31,1.01-1.49,3.25-1.46,5.01,0,8.13-.06,28.18,0,35.19.02,1.3.23,2.67,1.19,3.4,2.06,1.44,5.95,1.28,7.09-1.49.77-1.87.19-16.75.19-16.75,0-.6.48-1.08,1.08-1.08h3.01c.6,0,1.08-.48,1.08-1.08v-4.3c0-.6.48-1.08,1.08-1.08h7.63c.38,0,1.02-.13,1.38,0,.63.22.23,2.67.23,3.31v2.07c0,.6.48,1.08,1.08,1.08.37,0,.74-.01,1.11-.02.37-.01.75-.03,1.12-.03.49,0,1.74-.29,1.95.35.11.34,0,.75-.02,1.1-.02.37-.07.75-.07,1.12v2.81c0,.6.48,1.09,1.08,1.09h8.14c.6,0,1.08-.48,1.08-1.08v-4.46c0-.2-.07-.59.05-.76.16-.22.49-.12.73-.12h3.3c.6,0,1.08-.48,1.08-1.08v-4.3c0-.4-.19-1.06.37-1.09.25-.01.5,0,.75,0h8.58c.15,0,.51-.07.62.05.09.1.02.61.02.75,0,.5.01,1,.01,1.5v3.09c0,.6.49,1.08,1.08,1.08h3.2c.17,0,.57-.08.72,0,.3.15.16,1.06.16,1.42v3.92c0,.6.48,1.08,1.08,1.08h8.14c.6,0,1.08-.48,1.08-1.08v-3.92c0-.34-.2-1.25.19-1.42.11-.05.34,0,.46,0h3.45c.6,0,1.08-.49,1.08-1.09v-1.89c0-.91,0-1.82-.04-2.73-.04-1.07.7-.93,1.53-.85,1.87.19,3.79.03,5.57.28.65.09,1.3-.02,1.94-.16.71-.16,1.33.38,1.33,1.06v4.3c0,.6.48,1.08,1.08,1.08h2.82c.6,0,1.08.48,1.08,1.08v15.47c0,.2-.07.37-.16.53.27,1.64.8,3.17,3.17,3.08,7.35.1,22.45-.4,29.45-.4,1.69-.08,4.39.02,2.29-2.3"/>
  <path class="cls-17" d="M497.63,227.33c-.06-8.31.15-11.55-9.19-11.39-10.2,0-23.2-.21-33.36.12-6.42.26-6.57,3.53-6.61,10.7v13.65c3.51-2.76,6.51-3.83,9.52-3.91l-6.17-7.93,9.92-.43c-2.8-2.51-4.49-4.65-3.16-7.94,10.22,3.15,10.88,9.44,13.3,17.88-.15.15-.29.29-.36.43-2.94-4.79-6.84-7.72-9.7-10.22l-3.83,8.22c4.2-.21,8.16,1.51,13.24,3.15.07.14.07.29.15.5-5.29-.29-9.63.93-13.16,1.79l4.63,8.3c1.98-3.44,5.44-5.94,9.26-9.23.15.07.3.14.44.21h0c-.06.08-.11.16-.16.25-.06.08-.12.16-.16.24-.11.16-.21.32-.31.49-.2.33-.39.65-.57.97-.16.27-.3.54-.45.82s-.29.57-.43.85c-.31.63-.58,1.25-.82,1.86-.12.3-.24.59-.35.88-.09.24-.17.47-.26.7-.12.34-.24.68-.35,1.01-.11.31-.21.63-.31.93-.29.92-.54,1.81-.78,2.66h10.81c-1.03-3.36-2.14-7.51-5-11.66.15-.07.3-.14.45-.21,3.89,3.29,7.27,5.79,9.33,9.23l4.63-8.3c-3.53-.86-7.87-2.08-13.16-1.79.07-.21.07-.36.07-.5,5.07-1.64,9.11-3.36,13.3-3.15l-3.89-8.22c-2.79,2.51-6.69,5.43-9.63,10.22-.15-.14-.22-.28-.36-.43,2.42-8.44,3.08-14.73,13.3-17.88,1.25,3.29-.44,5.43-3.16,7.94l9.92.43-6.18,7.93c3.02.07,6.03,1.15,9.56,3.93-2.28,3.08-5.36,2.65-9.48,1.57l5.89,8.44-10.74-.07c1.47,2.57,2.2,5.72,1.54,10.15-4.04-.35-5.07-3.36-6.39-7.5l-5.44,10.08h13.43c3.17-.18,7.05.38,9.52-1.62l.07-.06c1.48-1.47,1.6-4.47,1.64-9.16.02-7.06.02-17.76,0-24.93M478.49,226.06h-.02c-.54,1.27-4.05.61-5.35.78h-.22c-1.3-.16-4.82.49-5.35-.78h-.09l.05-.09v-.02c-.03-.4.21-.91.42-1.33.91-1.69,2.65-4.63,3.68-6.39.25-.43.45-.74.65-.98l.73-1.34.61,1.12c.25.25.52.63.83,1.2,1.02,1.76,2.76,4.7,3.68,6.39.21.42.45.92.42,1.33-.02.04-.03.07-.05.1l.02.02h-.01ZM467.53,253.02c-1.25,4.15-2.35,7.15-6.32,7.5-.67-4.43,0-7.58,1.54-10.15l-10.81.07,5.89-8.44c-4.1,1.07-7.1,1.49-9.38-1.53v11.2c-.09,10.36.86,11.51,11.22,11.42h13.28l-5.44-10.08h.02Z"/>
  <path class="cls-17" d="M478.52,225.94s-.03.07-.05.1l-4.89-9.01c.25.25.52.63.83,1.2,1.02,1.76,2.76,4.7,3.68,6.39.21.42.45.92.42,1.33"/>
  <path class="cls-17" d="M478.47,226.06c-.54,1.27-4.05.61-5.35.78h-.22c-1.29-.16-4.82.49-5.35-.78l5.43-.07,5.5.07h-.01Z"/>
  <path class="cls-17" d="M471.6,218.22c-1.02,1.76-2.76,4.7-3.68,6.39-.21.42-.45.92-.41,1.33v.02l4.74-8.73c-.2.24-.41.56-.65.98"/>
  <path class="cls-8" d="M587.01,124.92s2.2-.36-2.15-.82c-4.15-.43-7.93-2.9-11.09-5.97-4.02-4.02-6.16-9.23-6.43-14.4-.02-.44-.03-.87-.02-1.31-12.13-.02-24.05-.05-33.63-.12-.56.04-1.31,0-2.03.02-1.45.03-2.28,1.69-1.4,2.85,0,0,0,.01.01.02,2.84,3.63,24.29,36.28,25.47,37.68.12.14.34.41.6.75,1.41,1.8,3.51,2.91,5.79,3.05.86.05,2.5.06,2.5.06,1.74,0,2.66-.92,2.77-2.15.44-4.9,2.56-9.77,6.37-13.57,3.22-3.12,6.69-5.1,10.88-5.74l2.35-.36h.01Z"/>
  <path class="cls-8" d="M581.91,104.85c1.17.7,2.27,1.56,3.26,2.57,2.5,2.5,4.04,5.57,4.68,8.81.12.19.24.3.35.29.09-.06.18-.16.26-.26.61-3.25,2.19-6.32,4.62-8.83,1.01-1.01,2.11-1.86,3.28-2.56.8-.48.48-1.71-.46-1.71h-11.93l-3.59-.02c-.94,0-1.27,1.23-.46,1.71"/>
  <path class="cls-8" d="M600.96,145c-1.75-.92-3.41-2.13-4.89-3.62-2.9-2.99-4.8-6.65-5.53-10.52-.28-.39-.51-.34-.77.12-.77,3.83-2.59,7.45-5.46,10.41-1.49,1.49-3.15,2.69-4.92,3.61-.8.42-.5,1.63.41,1.63h20.76c.9,0,1.21-1.21.41-1.63"/>
  <path class="cls-8" d="M612.14,112.55c0-.74-1-.97-1.33-.3-1.04,2.12-2.44,4.12-4.2,5.88-4.22,4.09-9.09,5.97-14.66,6.05,0,0-.28.04-.28.35s.25.4.25.4c5.58.19,10.47,1.98,14.69,6.08,1.76,1.76,3.16,3.76,4.2,5.88.32.66,1.32.44,1.33-.3.1-7.59.05-16.57,0-24.05"/>
  <path class="cls-14" d="M415.99,116.2c.03-3-1.4-3.24-3.92-3.22-8.78-.02-29.45,0-38.56,0-3.56-.02-4.51.09-2.22,3.51,3.1,4.72,10.07,15.27,12.92,19.56.42.55.98,1.62,1.53,1.49.23-.13.35-.71.4-1.65.04-.58.05-1.27.06-2-.05-2.15-.11-4.46.24-6.27.64-1.97,4.8-1.86,5.01.48.08.77.11,1.58.12,2.41.45,2.96-.24,6.76.42,9.05.74,3.88,10.13,2.1,13.48,2.62,4.1.07,3.84,5.43,5.95,7.89l.07.07c2.01,2.22,4.66.66,4.5-2.04.03-8.07.06-23.67,0-31.89M380.83,118.42h-1.39c-.24,0-.16.02-.17-.23v-2.41h1.57c.07,0,.12.04.16.09.02.03.05.07.05.12v2.24c0,.12-.1.21-.21.21M389.74,121.06c-.41.09-1.18-.14-1.48.16-.02.06-.03.12-.04.19,0,.07,0,.15-.02.22-.03.49.02,1.08,0,1.51h0c.02.2,0,.34-.04.43-.14.3-.55.2-.94.21-.38.04-.58-.02-.68-.14-.19-.2-.12-.59-.1-1.1v-.07c0-.12,0-.23-.02-.35-.05-.49.2-1.03-.45-1.03-.31.02-1.07-.11-1.25.14h0c0,.06-.02.12-.03.2,0,.07-.02.16-.02.24-.02.22-.02.47,0,.71,0,.27.02.55.02.78,0,.12,0,.22-.02.31,0,.13-.05.21-.12.26-.05.03-.11.06-.18.07-.3.02-.93.05-1.26-.02-.19-.11-.21-.25-.2-.46v-1.57c.13-1.01-.84-.52-1.53-.66-.37-.07-.3-.43-.28-.96v-.46c.02-.57-.05-.96.08-1.12.04-.05.11-.07.2-.08.29-.04.96,0,1.25-.03h.02c.14-.02.21-.08.24-.2.04-.27,0-1.03.02-1.62,0-.24,0-.42.03-.54.02-.11.07-.18.16-.22.07-.02.15-.04.26-.04.72-.02,1.05-.03,1.2.12.17.16.13.53.12,1.3v.44c0,.19,0,.34.02.45.02.09.05.16.1.21.03.03.07.06.12.07.16.07.45.07.93.05.11,0,.21,0,.3-.02.21-.02.33-.12.31-.45.02-.46-.03-1.5.03-1.95,0-.03.02-.05.05-.07,0-.02.02-.03.04-.05.31-.21,1.3-.09,1.53-.06l.03.02.02.02s.02.07.02.1c0,.02,0,.04.02.06.02.17.03.39.03.63v.12c0,.28,0,.58-.02.83,0,.25,0,.46.03.59.03.1.12.16.24.2.36.11,1.01-.04,1.28.04.08,0,.14.03.18.08.08.08.1.23.1.45v.68c-.02.16,0,.37,0,.58.03.4.04.79-.28.84M391.79,123.78h0c-.4,0-1.07.02-1.55,0-.07,0-.12-.03-.16-.08-.03-.03-.06-.08-.06-.13v-2.28c0-.12.1-.21.22-.21h1.54s0,.08.02.22v2.47h-.01ZM391.74,118.42h-1.72v-2.54h0c0-.13.02-.11.26-.11h1.3c.12.02.21.1.21.21v2.2c0,.19.03.23-.05.23M400.72,118.19v-2.41h1.55c.07,0,.12.04.16.09.03.03.05.07.05.12v2.21c0,.12-.1.21-.22.21h-1.49c-.1,0-.06-.04-.07-.23M402.33,123.79h-1.61v-2.6c0-.09,0-.12.06-.12h1.48c.12,0,.22.09.22.21v2.41c0,.07-.05.1-.16.09M393.58,116.32c.02-.31.26-.55.58-.55h4.17c.34,0,.62.28.62.63v4.86h0v1.96c0,.31-.25.56-.55.57-1.01.02-3.09.02-4.25,0-.31,0-.56-.26-.56-.58,0-.55,0-1.42-.02-2.37v-.79c0-1.39,0-2.83.02-3.71M398.96,135.72c0,.37,0,.72-.02,1.03,0,.34-.03.64-.09.92-.11.6-.31,1.05-.71,1.31l-.08.06c-.16.07-.31.13-.47.19-.39.17-.84.25-1.31.24-.48,0-.92-.07-1.31-.24-.16-.06-.32-.12-.47-.19l-.08-.06c-.4-.26-.61-.71-.72-1.31-.07-.27-.1-.58-.09-.92-.02-.31-.02-.66-.02-1.03.02-.55,0-1.13,0-1.72-.04-1.73-.09-3.58.06-5.2.02-.28.03-.57.05-.84.03-.31.13-.57.27-.8.43-.71,1.36-1.06,2.3-1.06s1.87.35,2.29,1.06c.15.23.25.49.27.8.03.27.04.57.06.85.15,1.62.09,3.46.06,5.19v1.72M406.11,135.72c0,.37,0,.72-.02,1.03,0,.34-.02.64-.1.92-.11.6-.31,1.05-.71,1.31l-.08.06c-.16.07-.31.13-.47.19-.39.17-.83.25-1.31.24-.47,0-.92-.07-1.31-.24-.16-.06-.31-.12-.47-.19l-.08-.06c-.39-.26-.6-.71-.71-1.31-.07-.27-.1-.58-.1-.92,0-.31-.02-.66-.02-1.03.02-.55.02-1.13,0-1.72-.04-1.73-.09-3.58.06-5.2.02-.28.03-.57.05-.84.03-.31.13-.57.28-.8.42-.71,1.35-1.06,2.29-1.06s1.87.35,2.3,1.06c.14.23.24.49.27.8.02.27.03.57.05.85.15,1.62.1,3.46.06,5.19v1.72M411.19,121.06c-.4.09-1.18-.14-1.49.16-.02.1-.03.21-.04.34-.04.45,0,.99,0,1.42v.32c0,.62-.51.46-.98.49-.32.03-.51,0-.63-.08-.26-.17-.17-.57-.16-1.1v-.49c-.05-.49.2-1.03-.45-1.03-.31.02-1.08-.11-1.26.14-.03.12-.05.27-.06.44-.03.47,0,1.06,0,1.48v.31c0,.09-.03.15-.07.2-.05.07-.12.11-.25.12-.29.02-.93.05-1.25-.02-.09-.05-.13-.12-.16-.18-.06-.14-.03-.32-.04-.61v-1.24c.13-1.01-.85-.52-1.53-.66-.39-.02-.26-.45-.29-1.2-.02-.59-.02-.94.03-1.15.11-.43.48-.24,1.51-.31h.02c.13-.02.21-.08.23-.2.05-.27.02-1.03.02-1.62,0-.26,0-.45.03-.58.02-.09.07-.15.16-.19.06-.02.15-.04.26-.04.28,0,.74-.02,1.01.02.11.02.18.07.23.14.03.04.06.1.07.16.03.1.03.21.02.34,0,.26-.04.54,0,.77v.37c0,.27,0,.49.02.63.03.08.1.14.21.17.31.12.9.05,1.21.02.05,0,.09-.02.12-.02.17-.05.2-.18.21-.43v-.26c0-.52-.02-1.31.03-1.69,0-.02.02-.04.03-.06t.02-.03l.02-.02h0c.31-.21,1.3-.09,1.54-.06l.03.02.03.02s.02.07.02.1c0,.02,0,.05.02.07.03.16.03.38.03.62v.12c0,.28-.02.58-.02.83s0,.46.03.59c.03.1.12.16.23.2.36.11,1.02-.04,1.28.04.06,0,.1.02.14.04.11.06.14.19.14.39v.78c-.03.17,0,.41,0,.64.02.37.02.73-.3.78M413.25,118.19c-.02.25.07.24-.17.23h-1.6v-2.6c0-.07.06-.05.24-.05h.97c.31,0,.56.26.56.56v1.86h0Z"/>
  <path class="cls-1" d="M656.43,180.13c-1.34-1.56-2.35-2.52-2.35-2.52-5.6-5.48-12.15-12.04-17.87-17.62-1.41-1.39-2.73-2.67-4.07-3.98-2.58-2.52-7.15-2.5-10.45-2.5h-28.44c-7.14,0-23.38,0-28.91.01-1.1.08-1.95-.05-1.48,1.01,4.53,6.41,15.22,21.63,20.11,28.03,1.72,2.25,8.58,3.45,8.61-.51v-.18c0-.13.01-.26.02-.38.06-1.35.03-2.47,0-3.54l-.16-5.17v-2.79c0-1.65,1.29-3.02,2.94-3.11h.05c.18-.01.36-.02.53-.04,3.04-.22,4.56-.66,4.7,2.54.02.38.01,2.88,0,3.37-.06,1.25.94,2.29,2.19,2.29h5.9c1.47,0,2.66-1.19,2.66-2.66v-3.47c0-1.09.89-1.99,1.97-2,1.59-.02,3.51-.12,4.52-.12,2.56,0,1.95,2.48,2.01,5.11v.58c-.02,1.41,1.09,2.57,2.5,2.57h6.54c1.04,0,1.88-.84,1.88-1.88v-4.45c0-1.06.84-1.94,1.9-2,3.77-.21,5.51.12,6.24,1.1,1.09,1.44.51,9.89.59,12.36.03.84.1,1.74.61,2.41.46.6,1.21.92,1.96,1.02,1.12.15,10.71-.28,14.52-.19.89.02,1.68-.68,1.65-1.56,0-.13-.25-.94-.91-1.7"/>
  <path class="cls-4" d="M479.18,294.02c-.37-.46-1.82-.12-1.78,1.08.08.29.27.64.61,1.04.31.4.73.93,1.21,1.53,2.22,2.81,5.74,7.27,6.56,8.27.24.25.43.28.83.31.69.03,1,.1,1.29-.03,1.15-.48-.13-1.71-.33-1.94-1.54-1.81-7-8.63-8.4-10.27"/>
  <path class="cls-4" d="M497.79,273.27v-1.22c0-3.5-1.43-4.08-3.19-4.09-12.19-.05-38.31-.47-38.31-.47,0,0-4.19-.26.05,3.66,3.38,3.14,14.14,15.16,16.89,18.79.23.31.57.69.92.59.92-.27,1.87-2.98.95-4.02-2.32-2.99-7.8-9.46-10.68-13-1.72-2.13-3.02-3.42-2.73-3.74.24-.31,1.63.16,3.11,1.53.78.68,1.64,1.55,2.52,2.52,1.39,1.53,2.86,3.31,4.24,5.04,1.21,1.52,2.36,3,3.32,4.24,1.29,1.76,2.8,2.96,2.76,4.75.14,1.57-2.06,3.59-2.17,4.99.04.24.31.2.68-.02.95-.54,2.67-2.27,3.61-.94,2.04,2.4,7.71,8.72,10.5,12.46,1.63,2.19,2.42,1.97,2.64,1.78.29-.21-.7-1.37-2.03-2.88-3.09-3.6-6.98-7.84-9.62-11.93-2.84-4.45-1.58-4.48,1.43-8.37,2.33-2.68,9.89-13.66,13.05-13.12.3.34-.76,1.46-2.18,3.13-3.7,4.48-8.39,9.33-11.32,14.47-.83,1.76-.23,1.81,1.24,3.69.73.89,1.42,1.78,2.15,2.72,1.27,1.43,5.39,7.1,8.57,10.23,1.3,1.28,3.51.36,3.55-1.46.18-9.51-.06-19.43.03-29.33M472.35,269.83l.11.03c.62.2.99.68,1.65,1.48.96,1.16,2.41,2.92,3.37,4.1.1.11.2.22.3.35.46.59.92,1.18,1.52.46.16-.19.4-.46.67-.78,1.15-1.37,3.02-3.69,3.96-4.78.38-.45.84-.78,1.41-.89.46-.09,1.86-.26,1.6.41-.07.09-.16.21-.24.31-1.84,2.4-5.01,6.09-6.89,8.44-.51.51-.73,1.2-1.26.96-1.48-1.57-6.42-7.76-7.92-9.57-.06-.09-.09-.16-.11-.24-.12-.6,1.38-.42,1.83-.29M491.81,270.36c-.06.07-.12.15-.2.22-2.01,2.3-8.93,10.41-11.71,13.66-.64.74-1.77.76-2.43.02-3.07-3.44-9.85-11.77-11.75-13.9-.07-.09-.12-.17-.13-.24-.16-.52.95-.43,1.67-.33.48.09.85.28,1.17.63.79.88,2.47,2.9,4.3,5.03,1.28,1.51,2.6,3.07,3.65,4.31,1.06,1.16,1.57,1.99,2.06,2.35.1.07.2.13.3.16.21-.07.4-.22.61-.45.42-.44.91-1.15,1.76-2.07,1.06-1.25,2.39-2.8,3.68-4.31,1.83-2.13,3.51-4.15,4.31-5.03.32-.35.7-.54,1.17-.63.82-.12,2.14-.21,1.54.56"/>
  <path class="cls-13" d="M461.13,160.25c0-1.58-.33-2.5-2.06-2.52-1.64-.01-6.14-.12-6.84-.17h-16.79c-11.28.11-10.74.18-21.97,0-1.62-.03-10.8.09-12.31,0-11.8-.77-5.46,8.91-5.05,9.5.02.03,12.62,22.56,17.87,33.13,1.31,2.63,2.23,5.52,3.39,8.22,1.89,4.44,3.81,8.96,6.27,13.12.4.68.93,1.51,1.58,1.99.44.32,1.03.49,1.53.27.36-.16.62-.49.82-.83.99-1.75.7-3.95.57-5.87-.16-2.35-.45-4.69-.57-7.05-.15-2.89-.48-5.82-.44-8.71.13-9.25-.6-24.84,2.95-30.09,2.02-5.33,9.28-8.44,14.09-8.07,11.43.98,12.26,11.62,12.42,19.38.03,1.37-.33,3.99,3.17,3.99,1.35,0,1.24-1.69,1.24-1.69l.05-3.2s.03-.22.05-.33c.02-1.74.03-6.21.03-10.69v-10.39"/>
  <path class="cls-19" d="M661.29,252.32v-40.95c0-.89,0-1.54-.05-2.04v-2.1c0-.79.25-1.97-.27-2.64-.31-.4-.92-.57-1.34-.28-.23.16-.35.45-.52.68-.59.8-1.91,1.25-2.85,1.36-1.24.15-2.46-.24-3.57-.76-3.84-1.81-6.62-6.73-8.34-10.32-.26-.57-.44-1.15-.45-1.77.21-2.08-.12-4.38-2.56-4.97-2.08-.57-4.34.92-4.41,3.06-.06,1.2.19,2.21-.27,3.31-2.35,5.21-7.73,14.17-14.22,10.37-1.57-1.06-2.79-.78-2.7,1.17.07,1.39.09,2.72.1,4.03-.1,2.23-.11,36.88-.09,38.61v.22h0c.02,2.39.09,4.77.02,8.33.04,1.77-.11,8.55.34,8.88.32.39.86.38,1.36.41,10.95.03,25.6,0,37.06.02,2.22-.02,2.68.02,2.74-1.9.07-5.31,0-7.34.02-12.71M646.27,256.71c-.04.78-.68,1.37-1.46,1.37h-8.69c-.78,0-1.42-.61-1.45-1.39-.16-3.12-.49-43.46.03-45.28.73-2.72,2.61-4.7,4.72-6.56,1.41-1.24,1.41-1.24.02,0,.56-.49,1.38-.5,1.98-.06,2.51,1.88,4.68,4.73,5.14,7.86.23,1.41-.12,41.11-.28,44.06"/>
  <path class="cls-20" d="M472.18,141.84c1.51.09,5.84.07,7.39.06,2.02-.1,4.47.18,4.96-1.99.47-4.69.08-18.92.2-23.83-.05-4.66.27-7.56-1.16-10.04-2.83-5-12.88-3.89-14.38,1.52l-.04.13c-.59,2.16-.41,4.66-.45,8.4v20.4c-.12,4.02.34,5.27,3.48,5.36"/>
  <path class="cls-20" d="M492.12,141.84c1.51.09,5.84.07,7.39.06,2.02-.1,4.47.18,4.96-1.99.47-4.69.08-18.92.2-23.83-.05-4.66.27-7.56-1.16-10.04-2.83-5-12.88-3.89-14.38,1.52l-.04.13c-.59,2.16-.41,4.66-.45,8.4v20.4c-.12,4.02.34,5.27,3.48,5.36"/>
  <path class="cls-20" d="M540.67,141.95c1.79-.03,3.01.05,1.73-1.57-4.19-5.56-17.53-26.4-25.61-36.98-2.19-1.36-1.7,3.67-1.7,3.67-.33,6.01,3.14,11.36-3.2,15.98-1.42,1.28-2.46,2.91-2.84,4.8-.77,4.62-.27,2.05-.41,6.8,0,1.91,0,3.51.08,4.65.15,2.01.68,2.52,2.3,2.62,10.24.1,19.04.02,29.65.04"/>
  <path class="cls-3" d="M573.95,186.5l-.03.06c-.17.32-.78.43-1.74.47h-9.94c-1.76,0-2.88-.04-3.11-.49l-.03-.06c-.08-.19-.01-.47.16-.83.12-.29.31-.63.62-1.05.04-.05.08-.12.12-.18.11-.16.22-.33.35-.51.02-.03.04-.06.06-.09,0-.01.02-.02.02-.04h0c1.24-1.81,3.05-4.35,4.24-6.03.27-.38.53-.72.77-1,.02-.02.03-.04.05-.05.12-.13.24-.25.36-.35.02-.02.04-.04.06-.05.12-.09.23-.17.35-.22.01,0,.03-.01.04-.02.12-.05.23-.08.35-.08h.04c.1,0,.2.02.3.05.02,0,.05.01.07.02.1.04.2.1.31.18.04.03.08.06.12.09.11.09.21.19.33.32.02.02.04.05.06.07.11.13.23.28.34.45.01.02.02.03.04.05,1.08,1.51,2.88,4.21,4.19,6.2.07.11.15.22.21.32.18.27.34.52.49.75.02.02.04.05.05.08.29.43.48.77.59,1.06.17.37.23.66.15.86"/>
  <path class="cls-6" d="M163.64,221.08c.89,0,1.63-.29,2.23-.87s.9-1.33.9-2.25-.3-1.67-.9-2.25-1.34-.87-2.23-.87-1.63.29-2.23.87-.9,1.33-.9,2.25.3,1.67.9,2.25,1.34.87,2.23.87"/>
  <path class="cls-6" d="M170.8,221.08c.89,0,1.63-.29,2.23-.87s.9-1.33.9-2.25-.3-1.67-.9-2.25-1.34-.87-2.23-.87-1.63.29-2.23.87-.9,1.33-.9,2.25.3,1.67.9,2.25,1.34.87,2.23.87"/>
  <path class="cls-6" d="M199.69,256.83c-.89,0-1.63.29-2.23.87s-.9,1.33-.9,2.25.3,1.62.9,2.2,1.34.87,2.23.87,1.63-.29,2.23-.87.9-1.32.9-2.2-.3-1.67-.9-2.25-1.34-.87-2.23-.87"/>
  <path class="cls-6" d="M195.24,228.89v15.94h-12.16c-1.23,0-2.16-.1-2.8-.3-.65-.19-1.08-.58-1.31-1.15-.23-.56-.34-1.35-.34-2.36v-15.44h-6.11v1.38c-2.34.19-4.51.57-6.53,1.15-2.15.61-4.01,1.44-5.61,2.48-1.59,1.04-2.84,2.32-3.74,3.84-.91,1.51-1.36,3.26-1.36,5.26,0,1.75.34,3.27,1.03,4.59.7,1.32,1.64,2.42,2.85,3.29s2.62,1.53,4.23,1.97c1.6.45,3.33.67,5.17.67,1.4,0,2.82-.14,4.25-.42.84-.16,1.64-.38,2.43-.62.58.6,1.25,1.09,2.01,1.49,1.56.83,3.5,1.24,5.83,1.24h18.27v-23.02h-6.11ZM171.65,243.52c-.96.2-2.01.3-3.15.3-1.38,0-2.6-.16-3.68-.46-1.07-.31-1.91-.76-2.53-1.39-.61-.61-.92-1.38-.92-2.29s.34-1.81.99-2.58c.66-.76,1.54-1.41,2.67-1.93,1.12-.52,2.38-.94,3.81-1.26,1.17-.27,2.39-.44,3.66-.55v7.64c0,.8.06,1.54.15,2.25-.34.09-.66.18-1.01.25"/>
  <path class="cls-6" d="M192.52,256.83c-.89,0-1.63.29-2.23.87s-.9,1.33-.9,2.25.3,1.62.9,2.2,1.34.87,2.23.87,1.63-.29,2.23-.87.9-1.32.9-2.2-.3-1.67-.9-2.25-1.34-.87-2.23-.87"/>
  <path class="cls-6" d="M221.01,231.37c-2.79-2.36-6.11-3.98-9.97-4.87l-1.33,6.71c2.94.71,5.45,1.91,7.54,3.61,2.08,1.7,3.68,3.82,4.8,6.36.23.53.44,1.09.63,1.65h-16.6v7.08h23.8c-.03-4.35-.82-8.27-2.37-11.76s-3.71-6.42-6.5-8.78"/>
  <path class="cls-6" d="M346.58,212.89v31.94h-8.05c-1.23,0-2.16-.1-2.8-.3-.64-.19-1.07-.58-1.31-1.15-.23-.56-.34-1.35-.34-2.36v-12.14h-6.11v12.14c0,1.38-.4,2.4-1.19,3.07-.8.68-1.69,1.02-2.67,1.02-.86,0-1.66-.26-2.42-.78-.57-.39-.97-.94-1.22-1.62.02-.32.05-.62.05-.96v-10.62h-6.11v9.89c0,1.38-.4,2.4-1.2,3.07-.8.68-1.69,1.02-2.66,1.02-.86,0-1.66-.26-2.42-.78-.63-.45-1.05-1.07-1.28-1.85.04-.47.07-.95.07-1.45v-7.63h-6.11v7.63c0,1.01-.12,1.8-.34,2.36-.23.57-.66.96-1.29,1.15-.62.2-1.57.3-2.82.3h-11.79c.31-.25.62-.51.92-.78,1.3-1.17,2.33-2.41,3.1-3.73.76-1.32,1.15-2.68,1.15-4.09,0-1.71-.57-3.21-1.72-4.48-1.15-1.27-2.74-2.26-4.78-2.96s-4.41-1.06-7.14-1.06c-1.75,0-3.34.14-4.78.44-1.44.29-2.79.64-4.04,1.03l-4.19,6.9c.86,3.16,2.3,5.92,4.32,8.29.13.15.26.29.39.44h-11.86v-14.75c-1.28-.61-2.74-1.18-4.36-1.7-1.63-.52-3.3-.78-5.01-.78s-3.38.31-4.92.94-2.89,1.49-4.07,2.59c-1.17,1.11-2.09,2.41-2.73,3.91-.65,1.5-.97,3.14-.97,4.92,0,2.17.52,4.17,1.56,5.99s2.5,3.27,4.39,4.35c1.88,1.07,4.09,1.6,6.64,1.6h3.31v1.38c0,1.44-.4,2.52-1.22,3.22-.81.71-2.22,1.06-4.25,1.06h-8.5v7.07h8.5c2.36,0,4.41-.45,6.15-1.33,1.74-.89,3.1-2.18,4.04-3.89.95-1.7,1.43-3.74,1.43-6.13v-1.38h10.64c1.32,0,2.79-.19,4.44-.57,1.35-.32,2.73-.74,4.15-1.27,2.84,1.23,6.02,1.84,9.52,1.84h11.67c2.32,0,4.27-.41,5.83-1.24,1.04-.55,1.89-1.29,2.59-2.19.02.03.03.06.05.08.87,1.16,1.9,2.01,3.11,2.54,1.19.54,2.43.81,3.72.81,1.5,0,2.93-.37,4.27-1.1.96-.53,1.8-1.26,2.52-2.18.86,1.12,1.88,1.96,3.05,2.48,1.19.54,2.43.81,3.72.81,1.5,0,2.93-.37,4.28-1.1.6-.34,1.15-.76,1.66-1.23.47.41.97.79,1.55,1.09,1.56.83,3.51,1.24,5.83,1.24h14.2v-39.01h-6.15v-.02ZM249.78,245.2h-3.31c-1.35,0-2.5-.24-3.47-.69-.96-.46-1.71-1.1-2.23-1.91-.52-.81-.78-1.69-.78-2.64,0-1.05.29-1.99.85-2.83.57-.85,1.34-1.53,2.32-2.05.98-.52,2.12-.78,3.4-.78,1,0,2.07.18,3.21.53v10.36h.01ZM282.64,239.04c-.63.65-1.47,1.31-2.53,2s-2.23,1.32-3.52,1.89c-.41.18-.84.34-1.26.5-1.98-.93-3.61-2.27-4.88-3.99-.82-1.12-1.44-2.37-1.9-3.72,1.18-.43,2.33-.75,3.44-.95,1.16-.22,2.38-.33,3.68-.33,1.56,0,2.94.15,4.13.44,1.2.29,2.12.65,2.79,1.08.65.43.98.89.98,1.38s-.31,1.06-.94,1.7"/>
  <rect class="cls-6" x="358.8" y="212.9" width="6.16" height="39.01"/>
  <path class="cls-6" d="M163.27,165.29c.89,0,1.63-.29,2.23-.87s.9-1.33.9-2.25-.3-1.67-.9-2.25-1.34-.87-2.23-.87-1.63.29-2.23.87-.9,1.33-.9,2.25.3,1.67.9,2.25,1.34.87,2.23.87"/>
  <path class="cls-6" d="M170.44,165.29c.89,0,1.63-.29,2.23-.87s.9-1.33.9-2.25-.3-1.67-.9-2.25-1.34-.87-2.23-.87-1.63.29-2.23.87-.9,1.33-.9,2.25.3,1.67.9,2.25,1.34.87,2.23.87"/>
  <path class="cls-6" d="M160.81,195.18c1.73.9,3.75,1.36,6.04,1.36s4.36-.45,6.09-1.36c1.73-.9,3.08-2.16,4.04-3.77.96-1.61,1.45-3.47,1.45-5.58,0-5.15-3.14-10.35-9.42-15.62h-4.23c-6.34,5.3-9.51,10.52-9.51,15.67,0,2.08.49,3.93,1.47,5.54s2.34,2.87,4.07,3.77M162.44,181.21c.86-1.42,2.22-2.96,4.09-4.62h.78c1.78,1.65,3.09,3.19,3.95,4.62.86,1.42,1.29,2.73,1.29,3.93,0,.86-.23,1.62-.69,2.27-.46.66-1.11,1.16-1.95,1.52-.84.35-1.86.53-3.06.53s-2.18-.18-3.03-.53c-.86-.35-1.52-.84-1.98-1.47-.46-.63-.69-1.39-.69-2.27,0-1.23.43-2.55,1.29-3.97"/>
  <path class="cls-6" d="M192.72,173.51h-6.11v24.4c0,1.04-.19,1.9-.57,2.57s-1.01,1.17-1.88,1.49-2.08.48-3.61.48l1.15,6.75c2.3-.09,4.27-.6,5.9-1.52,1.64-.92,2.9-2.2,3.79-3.86.89-1.65,1.33-3.63,1.33-5.93v-24.4.02Z"/>
  <path class="cls-6" d="M346.58,157.52v31.94h-18.34c.31-.26.62-.52.92-.78,1.3-1.17,2.33-2.41,3.1-3.73.76-1.32,1.15-2.68,1.15-4.09,0-1.71-.57-3.21-1.72-4.48-1.15-1.27-2.74-2.26-4.78-2.96-2.04-.7-4.41-1.06-7.14-1.06-1.75,0-3.34.14-4.78.44-1.44.29-2.79.64-4.04,1.03l-4.19,6.89c.86,3.16,2.3,5.92,4.32,8.3.13.15.26.29.39.44h-24.52c-1.16,0-2.06-.09-2.71-.28-.64-.18-1.07-.53-1.31-1.03-.14-.32-.24-.72-.31-1.2,0-.11.02-.23.02-.34,0-1.75-.21-3.41-.62-4.98-.41-1.58-1.03-2.97-1.84-4.18s-1.85-2.16-3.1-2.87c-1.26-.7-2.73-1.06-4.41-1.06s-3.03.29-4.3.87c-1.28.58-2.42,1.36-3.45,2.34-1.02.98-1.96,2.06-2.8,3.21-.85,1.17-1.65,2.33-2.42,3.5-.76,1.25-1.53,2.33-2.29,3.24-.77.9-1.62,1.59-2.55,2.06-.94.48-2.08.71-3.42.71h-46.45v-31.94h-6.15v39.01h52.6c2.02,0,3.78-.33,5.26-.99,1.38-.61,2.69-1.54,3.89-2.76.6.51,1.22.99,1.85,1.43,1.24.87,2.68,1.59,4.3,2.13,1.63.55,3.51.93,5.66,1.12,2.14.2,4.68.23,7.63.08.41-.8.77-1.62,1.09-2.48.11.08.21.16.33.22,1.5.83,3.34,1.24,5.51,1.24h23.3c1.32,0,2.79-.19,4.44-.57,1.35-.32,2.73-.75,4.15-1.27,2.84,1.23,6.01,1.84,9.52,1.84h24.37v-39.01h-6.15v.02ZM275.99,190.58c-1.36,0-2.61-.03-3.73-.12-2.08-.15-3.86-.53-5.33-1.12-.91-.37-1.74-.85-2.5-1.42.13-.19.26-.38.39-.58,1.07-1.69,2.05-3.02,2.92-4.02.87-1,1.7-1.72,2.5-2.16s1.59-.67,2.39-.67c1.26,0,2.21.49,2.87,1.47s.99,2.53.99,4.64c0,1.33-.17,2.66-.49,3.98M326.31,183.67c-.63.65-1.47,1.31-2.53,2-1.06.69-2.23,1.32-3.52,1.89-.41.18-.84.34-1.26.5-1.98-.93-3.61-2.27-4.88-3.99-.82-1.12-1.44-2.37-1.9-3.72,1.18-.43,2.33-.75,3.43-.95,1.17-.22,2.39-.33,3.68-.33,1.56,0,2.94.15,4.13.44,1.2.29,2.12.65,2.79,1.08.65.43.98.89.98,1.38s-.31,1.06-.94,1.7"/>
  <rect class="cls-6" x="358.8" y="157.52" width="6.16" height="39.01"/>
  <path class="cls-6" d="M23.82,228.58c-1.13-.7-2.31-1.29-3.52-1.77-1.21-.47-2.37-.84-3.49-1.1-1.12-.26-2.12-.39-3.01-.39-1.23,0-2.21.24-2.96.71-.75.48-1.13,1.19-1.13,2.14,0,.89.31,1.62.94,2.18.63.57,1.45,1.03,2.46,1.38,1.01.35,2.13.71,3.35,1.06,1.23.35,2.44.76,3.65,1.22,1.21.46,2.33,1.05,3.35,1.77,1.03.72,1.84,1.64,2.43,2.76.6,1.12.9,2.51.9,4.16,0,2.08-.55,3.85-1.65,5.28-1.1,1.44-2.61,2.54-4.53,3.31-1.91.77-4.05,1.15-6.41,1.15-1.78,0-3.52-.21-5.24-.64s-3.33-1.03-4.85-1.82c-1.52-.78-2.89-1.69-4.11-2.73l2.89-5.7c1.1.98,2.32,1.84,3.65,2.57,1.33.74,2.67,1.3,4.02,1.7s2.59.6,3.72.6c1.5,0,2.67-.29,3.52-.87.84-.58,1.26-1.41,1.26-2.48,0-.92-.31-1.65-.92-2.2s-1.42-1.02-2.44-1.4c-1.01-.38-2.13-.73-3.35-1.06-1.23-.32-2.45-.7-3.68-1.15-1.23-.44-2.34-1.01-3.35-1.7-1.01-.69-1.83-1.57-2.46-2.64s-.94-2.43-.94-4.09c0-1.96.52-3.65,1.56-5.08,1.04-1.42,2.5-2.53,4.37-3.31,1.87-.78,4.04-1.17,6.53-1.17,2.27,0,4.47.33,6.62.99,2.14.66,4.01,1.51,5.61,2.55l-2.8,5.79v-.02Z"/>
  <path class="cls-6" d="M42.06,219.84h7.44l13.69,32.17h-7.72l-9.93-24.91-9.97,24.91h-7.54l14.01-32.17h.02ZM35.86,239.93h18.98v5.65h-18.98v-5.65Z"/>
  <path class="cls-6" d="M72.39,238.78c0,2.36.66,4.22,1.98,5.58,1.32,1.36,3.05,2.05,5.19,2.05s3.76-.68,5.03-2.05c1.27-1.36,1.91-3.22,1.91-5.58v-18.93h7.26v18.93c0,2.79-.57,5.22-1.72,7.28-1.15,2.07-2.79,3.66-4.92,4.78-2.13,1.12-4.66,1.68-7.6,1.68s-5.49-.56-7.65-1.68-3.82-2.71-4.99-4.78c-1.16-2.07-1.75-4.49-1.75-7.28v-18.93h7.26v18.93Z"/>
  <path class="cls-6" d="M113.88,219.84c2.51,0,4.8.39,6.87,1.17,2.07.78,3.85,1.88,5.35,3.31,1.5,1.42,2.66,3.12,3.49,5.08s1.24,4.14,1.24,6.52-.41,4.52-1.24,6.48c-.83,1.96-2.01,3.66-3.54,5.1s-3.35,2.55-5.45,3.33-4.42,1.17-6.96,1.17h-13.37v-32.17h13.61ZM114.07,246.08c1.38,0,2.63-.24,3.77-.74,1.13-.49,2.12-1.19,2.96-2.09s1.49-1.97,1.95-3.19c.46-1.22.69-2.59.69-4.09s-.25-2.87-.73-4.11c-.49-1.24-1.17-2.33-2.02-3.26-.86-.93-1.88-1.65-3.06-2.14s-2.47-.73-3.88-.73h-6.2v20.36h6.53,0Z"/>
  <rect class="cls-6" x="135.62" y="219.84" width="7.26" height="32.17"/>
  <path class="cls-6" d="M14.03,276.65h7.44l13.69,32.17h-7.72l-9.93-24.91-9.97,24.91H0l14.02-32.17h0ZM7.83,296.73h18.98v5.65H7.83v-5.65Z"/>
  <path class="cls-6" d="M52.54,276.65c4.2,0,7.45.97,9.76,2.92s3.47,4.68,3.47,8.2c0,3.71-1.16,6.59-3.47,8.66-2.31,2.07-5.57,3.1-9.76,3.1h-6.71v9.28h-7.26v-32.17h13.97ZM52.54,293.65c1.99,0,3.55-.47,4.66-1.4,1.12-.93,1.68-2.35,1.68-4.25s-.56-3.22-1.68-4.14c-1.12-.92-2.67-1.38-4.66-1.38h-6.71v11.17h6.71ZM51.66,296.82h7.08l7.81,11.99h-8.23l-6.66-11.99Z"/>
  <path class="cls-6" d="M95.13,286.48c-1.07-1.32-2.36-2.35-3.86-3.1s-3-1.13-4.5-1.13c-1.38,0-2.66.26-3.84.78s-2.22,1.25-3.12,2.18-1.6,2.03-2.09,3.29c-.49,1.26-.74,2.62-.74,4.09s.24,2.79.74,4.04c.49,1.26,1.19,2.35,2.09,3.29s1.94,1.67,3.12,2.21c1.18.54,2.46.8,3.84.8,1.47,0,2.94-.34,4.41-1.03s2.79-1.62,3.95-2.78l4.27,4.46c-1.13,1.16-2.41,2.18-3.84,3.03-1.42.86-2.92,1.52-4.48,2-1.56.47-3.13.71-4.69.71-2.42,0-4.65-.42-6.69-1.26s-3.81-2.02-5.33-3.54c-1.52-1.52-2.7-3.29-3.56-5.31s-1.29-4.21-1.29-6.57.43-4.49,1.29-6.48c.86-1.99,2.07-3.74,3.63-5.24s3.38-2.66,5.45-3.49,4.33-1.24,6.78-1.24c1.56,0,3.12.22,4.66.64,1.55.43,3,1.03,4.36,1.81,1.36.78,2.58,1.74,3.65,2.87l-4.23,4.96h.02Z"/>
  <polygon class="cls-6" points="103.73 276.65 110.99 276.65 110.99 290.16 125.55 290.16 125.55 276.65 132.81 276.65 132.81 308.82 125.55 308.82 125.55 296 110.99 296 110.99 308.82 103.73 308.82 103.73 276.65"/>
  <rect class="cls-6" x="139.89" y="276.65" width="7.26" height="32.17"/>
  <polygon class="cls-6" points="151.1 276.65 177.98 276.65 177.98 282.62 168.15 282.62 168.15 308.82 160.89 308.82 160.89 282.62 151.1 282.62 151.1 276.65"/>
  <polygon class="cls-6" points="181.89 276.65 206.38 276.65 206.38 282.49 189.15 282.49 189.15 289.75 204.64 289.75 204.64 295.58 189.15 295.58 189.15 302.98 206.89 302.98 206.89 308.82 181.89 308.82 181.89 276.65"/>
  <path class="cls-6" d="M235.88,286.48c-1.07-1.32-2.36-2.35-3.86-3.1s-3-1.13-4.5-1.13c-1.38,0-2.66.26-3.84.78s-2.22,1.25-3.12,2.18-1.6,2.03-2.09,3.29c-.49,1.26-.74,2.62-.74,4.09s.24,2.79.74,4.04c.49,1.26,1.19,2.35,2.09,3.29s1.94,1.67,3.12,2.21c1.18.54,2.46.8,3.84.8,1.47,0,2.94-.34,4.41-1.03s2.79-1.62,3.95-2.78l4.27,4.46c-1.13,1.16-2.41,2.18-3.84,3.03-1.42.86-2.92,1.52-4.48,2-1.56.47-3.13.71-4.69.71-2.42,0-4.65-.42-6.69-1.26s-3.81-2.02-5.33-3.54c-1.52-1.52-2.7-3.29-3.56-5.31s-1.29-4.21-1.29-6.57.43-4.49,1.29-6.48c.86-1.99,2.07-3.74,3.63-5.24s3.38-2.66,5.45-3.49,4.33-1.24,6.78-1.24c1.56,0,3.12.22,4.66.64,1.55.43,3,1.03,4.37,1.81,1.36.78,2.58,1.74,3.65,2.87l-4.23,4.96h0Z"/>
  <polygon class="cls-6" points="241.3 276.65 268.19 276.65 268.19 282.62 258.35 282.62 258.35 308.82 251.09 308.82 251.09 282.62 241.3 282.62 241.3 276.65"/>
  <path class="cls-6" d="M278.8,295.58c0,2.36.66,4.22,1.98,5.58,1.32,1.36,3.05,2.05,5.19,2.05s3.76-.68,5.03-2.05c1.27-1.36,1.91-3.22,1.91-5.58v-18.93h7.26v18.93c0,2.79-.57,5.22-1.72,7.28-1.15,2.07-2.79,3.66-4.92,4.78-2.13,1.12-4.66,1.68-7.6,1.68s-5.49-.56-7.65-1.68-3.82-2.71-4.99-4.78c-1.16-2.07-1.75-4.49-1.75-7.28v-18.93h7.26v18.93h0Z"/>
  <path class="cls-6" d="M320.66,276.65c4.2,0,7.45.97,9.76,2.92s3.47,4.68,3.47,8.2c0,3.71-1.16,6.59-3.47,8.66-2.31,2.07-5.57,3.1-9.76,3.1h-6.71v9.28h-7.26v-32.17h13.97ZM320.66,293.65c1.99,0,3.55-.47,4.66-1.4,1.12-.93,1.68-2.35,1.68-4.25s-.56-3.22-1.68-4.14c-1.12-.92-2.67-1.38-4.66-1.38h-6.71v11.17h6.71ZM319.79,296.82h7.08l7.81,11.99h-8.23l-6.66-11.99Z"/>
  <polygon class="cls-6" points="339.96 276.65 364.45 276.65 364.45 282.49 347.22 282.49 347.22 289.75 362.71 289.75 362.71 295.58 347.22 295.58 347.22 302.98 364.96 302.98 364.96 308.82 339.96 308.82 339.96 276.65"/>
  <path class="cls-12" d="M402.5,123.16v.54c-.17,0-.35-.02-.52-.05.26-.06.46-.2.52-.49"/>
  <path class="cls-12" d="M402.5,121.68c0-.17-.02-.33-.07-.43-.02-.07-.08-.12-.16-.17.12,0,.22.09.22.21v.39"/>
  <path class="cls-12" d="M407.98,115.88l-.02.02s0-.02.02-.02h0Z"/>
  <path class="cls-12" d="M384.76,118.3s-.08-.12-.1-.21c.02.09.05.16.1.21"/>
  <path class="cls-12" d="M384.7,121.22h0c-.02.06-.03.12-.04.2,0-.07.02-.14.03-.2"/>
  <path class="cls-12" d="M381.05,117.56v-1.57s-.02-.08-.05-.12c-.04-.05-.09-.09-.16-.09h-1.57v2.42c.02.24-.07.23.17.23h1.39c.12,0,.21-.09.21-.21v-.66"/>
</svg>